<?xml version="1.0" encoding="UTF-8"?>
<svg width="99px" height="20px" viewBox="0 0 99 20" version="1.1" xmlns="http://www.w3.org/2000/svg" xmlns:xlink="http://www.w3.org/1999/xlink">
    <!-- Generator: Sketch 57.1 (83088) - https://sketch.com -->
    <title>logo/blue</title>
    <desc>Created with Sketch.</desc>
    <g id="Page-1" stroke="none" stroke-width="1" fill="none" fill-rule="evenodd">
        <g id="01.-Home" transform="translate(-102.000000, -70.000000)" fill="#3538D0" fill-rule="nonzero">
            <g id="hero">
                <g id="header">
                    <path d="M118.602,89 L113.468,89 L113.468,81.668 L106.11,81.668 L106.11,89 L102.002,89 L102.002,70.566 L106.11,70.566 L106.11,77.794 L113.468,77.794 L113.468,70.566 L117.602,70.566 L118.602,89 Z M132.482,89.39 C127.178,89.39 122.914,85.568 122.914,79.822 C122.914,74.076 127.282,70.176 132.43,70.176 C137.968,70.176 140.412,73.738 141.01,76.39 L137.136,77.612 C136.85,76.338 135.68,74.18 132.43,74.18 C129.96,74.18 127.178,75.948 127.178,79.822 C127.178,83.28 129.726,85.282 132.482,85.282 C135.68,85.282 136.954,83.15 137.318,81.824 L141.244,82.942 C140.646,85.49 138.202,89.39 132.482,89.39 Z M146.452,70.566 L153.342,70.566 C156.982,70.566 159.088,72.672 159.088,75.506 C159.088,77.404 157.892,78.964 156.384,79.458 C158.048,79.848 159.66,81.382 159.66,83.774 C159.66,86.79 157.372,89 153.888,89 L146.452,89 L146.452,70.566 Z M150.456,77.95 L152.692,77.95 C154.122,77.95 155.058,77.196 155.058,75.948 C155.058,74.752 154.252,73.972 152.64,73.972 L150.456,73.972 L150.456,77.95 Z M150.456,85.646 L153.03,85.646 C154.616,85.646 155.578,84.814 155.578,83.488 C155.578,82.214 154.642,81.33 153.03,81.33 L150.456,81.33 L150.456,85.646 Z M178.986,74.492 L173.292,74.492 L173.292,89 L169.184,89 L169.184,74.492 L163.516,74.492 L163.516,70.566 L178.986,70.566 L178.986,74.492 Z M191.968,89.39 C186.664,89.39 182.4,85.568 182.4,79.822 C182.4,74.076 186.768,70.176 191.916,70.176 C197.454,70.176 199.898,73.738 200.496,76.39 L196.622,77.612 C196.336,76.338 195.166,74.18 191.916,74.18 C189.446,74.18 186.664,75.948 186.664,79.822 C186.664,83.28 189.212,85.282 191.968,85.282 C195.166,85.282 196.44,83.15 196.804,81.824 L200.73,82.942 C200.132,85.49 197.688,89.39 191.968,89.39 Z" id="logo/blue"></path>
                </g>
            </g>
        </g>
    </g>
</svg>