<?xml version="1.0" encoding="UTF-8"?>
<svg width="99px" height="20px" viewBox="0 0 99 20" version="1.1" xmlns="http://www.w3.org/2000/svg" xmlns:xlink="http://www.w3.org/1999/xlink">
    <!-- Generator: Sketch 57.1 (83088) - https://sketch.com -->
    <title>logo/white</title>
    <desc>Created with Sketch.</desc>
    <g id="Page-1" stroke="none" stroke-width="1" fill="none" fill-rule="evenodd">
        <g id="01.-Home" transform="translate(-102.000000, -30.000000)" fill="#FDFDFD" fill-rule="nonzero">
            <g id="hero">
                <g id="header">
                    <path d="M117.602,49 L113.468,49 L113.468,41.668 L106.11,41.668 L106.11,49 L102.002,49 L102.002,30.566 L106.11,30.566 L106.11,37.794 L113.468,37.794 L113.468,30.566 L117.602,30.566 L117.602,49 Z M132.482,49.39 C127.178,49.39 122.914,45.568 122.914,39.822 C122.914,34.076 127.282,30.176 132.43,30.176 C137.968,30.176 140.412,33.738 141.01,36.39 L137.136,37.612 C136.85,36.338 135.68,34.18 132.43,34.18 C129.96,34.18 127.178,35.948 127.178,39.822 C127.178,43.28 129.726,45.282 132.482,45.282 C135.68,45.282 136.954,43.15 137.318,41.824 L141.244,42.942 C140.646,45.49 138.202,49.39 132.482,49.39 Z M146.452,30.566 L153.342,30.566 C156.982,30.566 159.088,32.672 159.088,35.506 C159.088,37.404 157.892,38.964 156.384,39.458 C158.048,39.848 159.66,41.382 159.66,43.774 C159.66,46.79 157.372,49 153.888,49 L146.452,49 L146.452,30.566 Z M150.456,37.95 L152.692,37.95 C154.122,37.95 155.058,37.196 155.058,35.948 C155.058,34.752 154.252,33.972 152.64,33.972 L150.456,33.972 L150.456,37.95 Z M150.456,45.646 L153.03,45.646 C154.616,45.646 155.578,44.814 155.578,43.488 C155.578,42.214 154.642,41.33 153.03,41.33 L150.456,41.33 L150.456,45.646 Z M178.986,34.492 L173.292,34.492 L173.292,49 L169.184,49 L169.184,34.492 L163.516,34.492 L163.516,30.566 L178.986,30.566 L178.986,34.492 Z M191.968,49.39 C186.664,49.39 182.4,45.568 182.4,39.822 C182.4,34.076 186.768,30.176 191.916,30.176 C197.454,30.176 199.898,33.738 200.496,36.39 L196.622,37.612 C196.336,36.338 195.166,34.18 191.916,34.18 C189.446,34.18 186.664,35.948 186.664,39.822 C186.664,43.28 189.212,45.282 191.968,45.282 C195.166,45.282 196.44,43.15 196.804,41.824 L200.73,42.942 C200.132,45.49 197.688,49.39 191.968,49.39 Z" id="logo/white"></path>
                </g>
            </g>
        </g>
    </g>
</svg>