<?xml version="1.0" encoding="UTF-8"?>
<svg width="24px" height="24px" viewBox="0 0 24 24" version="1.1" xmlns="http://www.w3.org/2000/svg" xmlns:xlink="http://www.w3.org/1999/xlink">
    <!-- Generator: Sketch 57.1 (83088) - https://sketch.com -->
    <title>icons/arrow_down</title>
    <desc>Created with Sketch.</desc>
    <g id="icons/arrow_down" stroke="none" stroke-width="1" fill="none" fill-rule="evenodd">
        <g id="Group" transform="translate(5.910000, 1.995000)" fill="#BABCC5" fill-rule="nonzero">
            <path d="M1.68140572,14.8822331 C2.07717133,14.8818851 2.43381217,14.6433244 2.58521827,14.277665 C2.73662437,13.9120056 2.65301998,13.4911557 2.37334543,13.2111331 L-0.198582503,10.6392058 L14.7368736,10.6392058 C15.2776491,10.6392058 15.7160343,10.2008209 15.7160343,9.66004561 C15.7160343,9.1192704 15.2776491,8.68088552 14.7368736,8.68088552 L-0.413997113,8.68088552 L2.34070651,6.13506916 C2.6544433,5.91854408 2.81399782,5.53961854 2.74964044,5.16388955 C2.68528393,4.78816056 2.40871615,4.48393618 2.04080272,4.3841678 C1.67288929,4.28439942 1.28051668,4.40722497 1.03515928,4.69896764 L-3.20786726,8.6156082 C-3.57071207,9.13753405 -3.57071207,9.83005962 -3.20786726,10.3519855 L1.03515928,14.5950127 C1.20727138,14.7679179 1.4377309,14.8703445 1.68140572,14.8822331 Z" id="icons/arrow_down" transform="translate(6.118017, 9.616117) rotate(-90.000000) translate(-6.118017, -9.616117) "></path>
        </g>
    </g>
</svg>