<?xml version="1.0" encoding="UTF-8"?>
<svg width="24px" height="24px" viewBox="0 0 24 24" version="1.1" xmlns="http://www.w3.org/2000/svg" xmlns:xlink="http://www.w3.org/1999/xlink">
    <!-- Generator: Sketch 57.1 (83088) - https://sketch.com -->
    <title>icons/bank</title>
    <desc>Created with Sketch.</desc>
    <g id="icons/bank" stroke="none" stroke-width="1" fill="none" fill-rule="evenodd">
        <g id="Group" transform="translate(1.995000, 1.995000)" fill="#3538D0" fill-rule="nonzero">
            <path d="M19.8099,5.89711375 L10.221775,0.06086375 C10.0892088,-0.02001 9.921625,-0.02001 9.788225,0.06086375 L0.2001,5.89711375 C0.04002,5.9946625 -0.0350175,6.18559125 0.0150075,6.36568125 C0.0650325,6.54577125 0.230115,6.67 0.416875,6.67 L0.83375,6.67 L0.83375,7.920625 C0.83375,7.98399 0.850425,8.0423525 0.8754375,8.09654625 C0.877105,8.09988125 0.87627125,8.10405 0.87793875,8.107385 L1.6675,9.68734125 L1.6675,19.17625 L1.250625,19.17625 C1.02051,19.17625 0.83375,19.36301 0.83375,19.593125 C0.83375,19.82324 1.02051,20.01 1.250625,20.01 L18.759375,20.01 C18.98949,20.01 19.17625,19.82324 19.17625,19.593125 C19.17625,19.36301 18.98949,19.17625 18.759375,19.17625 L18.3425,19.17625 L18.3425,9.6865075 L19.1320613,8.10655125 C19.1337288,8.10321625 19.132895,8.0990475 19.1345625,8.0957125 C19.159575,8.0423525 19.17625,7.98315625 19.17625,7.91979125 L19.17625,6.66916625 L19.593125,6.66916625 C19.779885,6.66916625 19.9441338,6.5449375 19.9941588,6.3648475 C20.0441838,6.1847575 19.96998,5.99382875 19.8099,5.89711375 Z M5.83625,19.17625 L4.16875,19.17625 L4.16875,9.6865075 L4.84325375,8.3375 L5.16174625,8.3375 L5.83625,9.6865075 L5.83625,19.17625 Z M11.6725,19.17625 L8.3375,19.17625 L8.3375,9.6865075 L9.01200375,8.3375 L10.9979963,8.3375 L11.6725,9.6865075 L11.6725,19.17625 Z M10.005,5.0025 C9.08537375,5.0025 8.3375,4.25462625 8.3375,3.335 C8.3375,2.41537375 9.08537375,1.6675 10.005,1.6675 C10.9246263,1.6675 11.6725,2.41537375 11.6725,3.335 C11.6725,4.25462625 10.9246263,5.0025 10.005,5.0025 Z M15.84125,19.17625 L14.17375,19.17625 L14.17375,9.6865075 L14.8482538,8.3375 L15.1667463,8.3375 L15.84125,9.6865075 L15.84125,19.17625 Z" id="Shape"></path>
        </g>
    </g>
</svg>