<?xml version="1.0" encoding="UTF-8"?>
<svg width="24px" height="24px" viewBox="0 0 24 24" version="1.1" xmlns="http://www.w3.org/2000/svg" xmlns:xlink="http://www.w3.org/1999/xlink">
    <!-- Generator: Sketch 57.1 (83088) - https://sketch.com -->
    <title>icons/bitcoin</title>
    <desc>Created with Sketch.</desc>
    <defs>
        <linearGradient x1="0%" y1="0%" x2="0%" y2="100%" id="linearGradient-1">
            <stop stop-color="#F9AA4B" offset="0%"></stop>
            <stop stop-color="#F7931A" offset="100%"></stop>
        </linearGradient>
    </defs>
    <g id="icons/bitcoin" stroke="none" stroke-width="1" fill="none" fill-rule="evenodd">
        <g id="Group" transform="translate(1.995000, 1.995000)" fill-rule="nonzero">
            <path d="M19.71053,12.4253322 C18.3740949,17.7851438 12.9448661,21.0470534 7.58380372,19.7104615 C2.22493019,18.3741823 -1.03735993,12.9452743 0.299700605,7.58577521 C1.63551037,2.22533819 7.06473909,-1.03688402 12.424238,0.299395234 C17.7849878,1.63567449 21.0469652,7.06520782 19.71053,12.4253322 Z" id="coin" fill="url(#linearGradient-1)"></path>
            <g id="bitcoin-logo" transform="translate(5.717143, 4.287857)" fill="#FFFFFF">
                <path d="M8.05482268,5.99868155 C7.78523103,5.65517908 7.37841315,5.41923774 6.83439352,5.29100194 C7.52716856,4.94280615 7.83161635,4.35183364 7.74803001,3.51798812 C7.72008647,3.21561833 7.6352788,2.95356291 7.49341162,2.73143676 C7.35144667,2.50926248 7.15987222,2.33065179 6.91795545,2.19553247 C6.67623407,2.06024467 6.4133352,1.9572565 6.1298695,1.88625508 C5.84633052,1.81525366 5.52080295,1.76369941 5.15350663,1.73166453 L5.15350663,0 L4.07963449,0 L4.07963449,1.68355204 C3.89367806,1.68355204 3.61009022,1.68812501 3.22889541,1.69729502 L3.22889541,0 L2.15487672,0 L2.15487672,1.73166453 C2.0014071,1.73626157 1.77595354,1.73859619 1.47841837,1.73859619 L0,1.73166453 L0,2.85863762 L0.774040898,2.85863762 C1.12738988,2.85863762 1.33427953,3.01443158 1.39470989,3.32589918 L1.39470989,5.29810209 C1.44126616,5.29810209 1.47841837,5.30046078 1.50633748,5.30503376 L1.39470989,5.30503376 L1.39470989,8.06732608 C1.35755768,8.30090867 1.22274965,8.4178083 0.990261362,8.4178083 L0.216269309,8.4178083 L0,9.67535183 L1.39483201,9.67535183 C1.48318147,9.67535183 1.61095477,9.67650712 1.77839616,9.67857694 C1.94573985,9.68088752 2.07121708,9.68204282 2.15492557,9.68204282 L2.15492557,11.4342857 L3.22911525,11.4342857 L3.22911525,9.70264526 C3.4243292,9.7073386 3.70791703,9.70957693 4.07985433,9.70957693 L4.07985433,11.4342857 L5.15375089,11.4342857 L5.15375089,9.68204282 C5.53506783,9.66375089 5.87327258,9.62957395 6.16836514,9.57900654 C6.46360426,9.52843905 6.74611734,9.44954327 7.01570898,9.34181364 C7.28527617,9.23422838 7.51072977,9.10014401 7.6920208,8.93980117 C7.87340952,8.77960268 8.02321525,8.57564811 8.14197524,8.32822617 C8.26034447,8.08080431 8.33599234,7.79448801 8.36843027,7.46915714 C8.42912932,6.83255114 8.32446315,6.34232844 8.05482268,5.99868155 Z M3.24977979,2.93401946 C3.28233988,2.93401946 3.37415785,2.93286418 3.52525813,2.93055363 C3.6764317,2.92819494 3.80190894,2.92593252 3.90186083,2.92362197 C4.00183714,2.92135955 4.13666959,2.9270878 4.30643148,2.94083079 C4.47612008,2.95457378 4.61906203,2.97293788 4.73525732,2.99580274 C4.85145261,3.0186676 4.97942132,3.05647887 5.11877261,3.10916433 C5.25836818,3.16180165 5.36987365,3.22596768 5.45346,3.30154208 C5.53721733,3.37711648 5.60810208,3.47336553 5.66611423,3.59019295 C5.72429737,3.70699631 5.75336451,3.84098442 5.75336451,3.99213321 C5.75336451,4.12041714 5.73248014,4.23726863 5.69068696,4.34268769 C5.64896706,4.44803455 5.58604525,4.53624479 5.5024589,4.60724621 C5.41884811,4.6782717 5.33267259,4.74017532 5.24432313,4.79281264 C5.15607138,4.84544996 5.04322247,4.88785827 4.90611838,4.91989315 C4.76903871,4.95197617 4.64932605,4.97717566 4.54710253,4.99546755 C4.44480574,5.01380758 4.31698358,5.02644342 4.16353839,5.03327882 C4.01006876,5.0401142 3.89380019,5.04478345 3.81480596,5.04704587 C3.73573844,5.04930829 3.62767707,5.04930829 3.49047527,5.04704587 C3.35324904,5.04478345 3.27315563,5.04358004 3.24985307,5.04358004 L3.24985307,2.9339954 L3.24977979,2.9339954 L3.24977979,2.93401946 Z M6.18238576,7.61354273 C6.13810112,7.71896177 6.08123699,7.81063787 6.01154913,7.88857096 C5.94173913,7.96631145 5.84987231,8.03509861 5.73602193,8.09457133 C5.62219598,8.15421257 5.51166756,8.20222878 5.40482749,8.23888474 C5.29784087,8.27568513 5.16877299,8.30757564 5.01781926,8.33515785 C4.86652356,8.36266789 4.73410929,8.38201877 4.62008793,8.39354753 C4.50623755,8.40502806 4.37030591,8.41414997 4.21217089,8.42108158 C4.05415799,8.42782073 3.93087911,8.43131062 3.84257851,8.43131062 C3.75422906,8.43131062 3.64262588,8.43005907 3.50779343,8.42782073 C3.37288769,8.42567866 3.28695642,8.42452337 3.24973094,8.42452337 L3.24973094,6.10181413 C3.28688314,6.10181413 3.39731386,6.09957577 3.58099865,6.09490653 C3.76470788,6.09028542 3.91456243,6.08814334 4.03080657,6.08814334 C4.14702629,6.08814334 4.30748181,6.09490653 4.51212426,6.10874579 C4.7165713,6.1223925 4.88860482,6.14292274 5.02820038,6.17040872 C5.16762496,6.19794283 5.31977557,6.24025486 5.48494533,6.2975855 C5.64994411,6.35481987 5.78367739,6.42466601 5.88599861,6.50712394 C5.98829542,6.58972627 6.07425111,6.69492872 6.1439634,6.82323671 C6.21384667,6.95147251 6.24870281,7.09809646 6.24870281,7.26306043 C6.24870281,7.39146474 6.22662155,7.5080996 6.18238576,7.61354273 Z" id="Shape"></path>
            </g>
        </g>
    </g>
</svg>