<?xml version="1.0" encoding="UTF-8"?>
<svg width="24px" height="24px" viewBox="0 0 24 24" version="1.1" xmlns="http://www.w3.org/2000/svg" xmlns:xlink="http://www.w3.org/1999/xlink">
    <!-- Generator: Sketch 57.1 (83088) - https://sketch.com -->
    <title>icons/calendar</title>
    <desc>Created with Sketch.</desc>
    <g id="icons/calendar" stroke="none" stroke-width="1" fill="none" fill-rule="evenodd">
        <g id="Group" transform="translate(1.995000, 2.495250)" fill="#2C2E3E" fill-rule="nonzero">
            <path d="M19.2283594,1.56965162 L15.3792092,1.56965162 L15.3792092,0.781640625 C15.3792092,0.349940508 15.0292687,0 14.5975685,0 C14.1658685,0 13.8159279,0.349940508 13.8159279,0.781640625 L13.8159279,1.56965162 L6.19407205,1.56965162 L6.19407205,0.781640625 C6.19407205,0.349940508 5.84413155,0 5.41243142,0 C4.98073131,0 4.6307908,0.349940508 4.6307908,0.781640625 L4.6307908,1.56965162 L0.781640625,1.56965162 C0.349940508,1.56965162 0,1.91963121 0,2.35129225 L0,17.6650781 C0,18.0967391 0.349940508,18.4467188 0.781640625,18.4467188 L19.2283594,18.4467188 C19.6600595,18.4467188 20.01,18.0967391 20.01,17.6650781 L20.01,2.35129225 C20.01,1.91963121 19.6600595,1.56965162 19.2283594,1.56965162 Z M18.4467188,16.8834375 L1.56328125,16.8834375 L1.56328125,3.13293287 L4.6307908,3.13293287 L4.6307908,3.92098295 C4.6307908,4.35268306 4.98073131,4.70262358 5.41243142,4.70262358 C5.84413155,4.70262358 6.19407205,4.35268306 6.19407205,3.92098295 L6.19407205,3.13293287 L13.8158889,3.13293287 L13.8158889,3.92098295 C13.8158889,4.35268306 14.1658294,4.70262358 14.5975295,4.70262358 C15.0292296,4.70262358 15.3791701,4.35268306 15.3791701,3.92098295 L15.3791701,3.13293287 L18.4467188,3.13293287 L18.4467188,16.8834375 Z M11.0602148,8.40052628 C11.0602148,8.98331753 10.5877913,9.45574114 10.005,9.45574114 C9.42220875,9.45574114 8.94978516,8.98331753 8.94978516,8.40052629 C8.94978516,7.81773503 9.42220875,7.34531145 10.005,7.34531145 C10.5877913,7.34531145 11.0602148,7.81773503 11.0602148,8.40052628 Z M11.0602148,12.9930558 C11.0602148,13.575847 10.5877913,14.0482706 10.005,14.0482706 C9.42220875,14.0482706 8.94978516,13.575847 8.94978516,12.9930558 C8.94978516,12.4102645 9.42220875,11.9378409 10.005,11.9378409 C10.5877913,11.9378409 11.0602148,12.4103037 11.0602148,12.9930558 Z M6.46768536,8.40052628 C6.46768536,8.98331753 5.99526176,9.45574114 5.41247051,9.45574114 C4.82967925,9.45574114 4.35725567,8.98331753 4.35725567,8.40052629 C4.35725567,7.81773503 4.82967925,7.34531145 5.41247051,7.34531145 C5.99522267,7.34531145 6.46768536,7.81773503 6.46768536,8.40052628 Z M14.5975295,7.34531145 C15.1803208,7.34531145 15.6527444,7.81773503 15.6527444,8.40052629 C15.6527444,8.98331753 15.1803208,9.45574114 14.5975295,9.45574114 C14.0147383,9.45574114 13.5423147,8.98331754 13.5423147,8.40052629 C13.5423147,7.81773503 14.0147773,7.34531145 14.5975295,7.34531145 Z M6.46768536,12.9930558 C6.46768536,13.575847 5.99526176,14.0482706 5.41247051,14.0482706 C4.82967925,14.0482706 4.35725567,13.575847 4.35725567,12.9930558 C4.35725567,12.4102645 4.82967925,11.9378409 5.41247051,11.9378409 C5.99522267,11.9378409 6.46768536,12.4103037 6.46768536,12.9930558 Z M14.5975295,11.9378409 C15.1803208,11.9378409 15.6527444,12.4102645 15.6527444,12.9930558 C15.6527444,13.575847 15.1803208,14.0482706 14.5975295,14.0482706 C14.0147383,14.0482706 13.5423147,13.575847 13.5423147,12.9930558 C13.5423147,12.4103037 14.0147773,11.9378409 14.5975295,11.9378409 Z" id="Shape"></path>
        </g>
    </g>
</svg>