<?xml version="1.0" encoding="UTF-8"?>
<svg width="24px" height="24px" viewBox="0 0 24 24" version="1.1" xmlns="http://www.w3.org/2000/svg" xmlns:xlink="http://www.w3.org/1999/xlink">
    <!-- Generator: Sketch 57.1 (83088) - https://sketch.com -->
    <title>icons/checkbox_on</title>
    <desc>Created with Sketch.</desc>
    <g id="icons/checkbox_on" stroke="none" stroke-width="1" fill="none" fill-rule="evenodd">
        <g id="Group" transform="translate(1.995000, 1.995000)" fill="#3538D0" fill-rule="nonzero">
            <path d="M2.10803593,0 L17.9019641,0 C19.0117558,0 19.9271811,0.867173469 20.0046854,1.95796588 L20.01,2.10803593 L20.01,17.9019641 C20.01,19.0117558 19.1465643,19.9271811 18.0525216,20.0046854 L17.9019641,20.01 L2.10803593,20.01 C0.998244182,20.01 0.0828188968,19.1465643 0.00531460316,18.0525216 L0,17.9019641 L0,2.10803593 C0,0.998244182 0.863435652,0.0828188968 1.95747834,0.00531460316 L2.10803593,0 L17.9019641,0 L2.10803593,0 Z M13.918393,6.44707019 L8.22212299,12.188826 L6.09977766,10.0250347 C5.84824044,9.76984552 5.44473282,9.76984552 5.19319559,10.0250347 C4.94165836,10.2802238 4.94165836,10.6895897 5.19319559,10.9447789 L7.76621177,13.5711005 C7.86263437,13.6689229 7.98588761,13.7327202 8.11987311,13.7543263 L8.22212299,13.7624923 C8.38981447,13.7624923 8.55226559,13.6933786 8.67279384,13.5711005 L14.8249751,7.36681441 C15.0765123,7.11162527 15.0765123,6.70225934 14.8249751,6.44707019 C14.5734379,6.19188105 14.1699302,6.19188105 13.918393,6.44707019 Z" id="Shape"></path>
        </g>
    </g>
</svg>