<?xml version="1.0" encoding="UTF-8"?>
<svg width="24px" height="24px" viewBox="0 0 24 24" version="1.1" xmlns="http://www.w3.org/2000/svg" xmlns:xlink="http://www.w3.org/1999/xlink">
    <!-- Generator: Sketch 57.1 (83088) - https://sketch.com -->
    <title>icons/checked</title>
    <desc>Created with Sketch.</desc>
    <g id="icons/checked" stroke="none" stroke-width="1" fill="none" fill-rule="evenodd">
        <g id="Group" transform="translate(1.995000, 1.995000)" fill="#3538D0" fill-rule="nonzero">
            <path d="M9.99277393,0 C15.5026559,0 19.9855479,4.48289206 19.9855479,9.99277393 C19.9855479,15.5026559 15.5026559,19.9855479 9.99277393,19.9855479 C4.48289206,19.9855479 0,15.5026559 0,9.99277393 C0,4.48289206 4.48289206,0 9.99277393,0 Z M13.840005,7.19258067 L8.90289865,12.1034259 L7.10138005,10.2914027 C6.84927248,10.0392952 6.44484994,10.0392952 6.19274238,10.2861505 C5.94063482,10.5330059 5.94063482,10.9426806 6.18749014,11.1947882 L8.44070146,13.4637562 C8.56675524,13.58981 8.72957471,13.6528369 8.89764641,13.6528369 C9.06046588,13.6528369 9.22328534,13.58981 9.34933912,13.4637562 L14.7433904,8.10121833 C14.995498,7.84911077 14.995498,7.44468823 14.7486427,7.19258067 C14.4965351,6.94047311 14.0921126,6.94047311 13.840005,7.19258067 Z" id="Shape"></path>
        </g>
    </g>
</svg>