<?xml version="1.0" encoding="UTF-8"?>
<svg width="24px" height="24px" viewBox="0 0 24 24" version="1.1" xmlns="http://www.w3.org/2000/svg" xmlns:xlink="http://www.w3.org/1999/xlink">
    <!-- Generator: Sketch 57.1 (83088) - https://sketch.com -->
    <title>icons/flag</title>
    <desc>Created with Sketch.</desc>
    <g id="icons/flag" stroke="none" stroke-width="1" fill="none" fill-rule="evenodd">
        <g id="Group" transform="translate(1.995000, 5.196600)" fill-rule="nonzero">
            <path d="M19.6419845,13.3718287 L1.13096988,13.3718287 C0.94842251,13.3718287 0.8004,13.2238063 0.8004,13.0412589 L0.8004,1.14130487 C0.8004,0.958757499 0.94842251,0.810734989 1.13096988,0.810734989 L19.6420219,0.810734989 C19.8245693,0.810734989 19.9725919,0.958757499 19.9725919,1.14130487 L19.9725919,13.0412589 C19.9725919,13.2238437 19.8245319,13.3718287 19.6419845,13.3718287 Z" id="Path" fill="#F5F5F5"></path>
            <g transform="translate(0.800400, 0.800400)" fill="#FF4B55">
                <path d="M19.1721919,0.976619057 L0,0.976619057 L0,0.34090487 C0,0.158357502 0.148022513,0.0103349895 0.330569881,0.0103349895 L18.8416219,0.0103349895 C19.0241693,0.0103349895 19.1721919,0.158357502 19.1721919,0.34090487 L19.1721919,0.976619057 L19.1721919,0.976619057 Z" id="Path"></path>
                <rect id="Rectangle" x="0" y="3.87528404" width="19.1721544" height="1"></rect>
                <rect id="Rectangle" x="0" y="1.9427159" width="19.1721544" height="1"></rect>
                <path d="M19.1721544,6.77402392 L0.330569881,6.77402392 C0.148022513,6.77402392 0,6.6260014 0,6.44345404 L0,5.80773984 L19.1721544,5.80773984 L19.1721544,6.77402392 Z" id="Path"></path>
                <rect id="Rectangle" x="0" y="9.67298848" width="19.1721544" height="1"></rect>
                <path d="M18.8415845,12.5714287 L0.330569881,12.5714287 C0.148022513,12.5714287 0,12.4234063 0,12.2408589 L0,11.6051822 L19.1721544,11.6051822 L19.1721544,12.2408963 C19.1721544,12.4234437 19.0241319,12.5714287 18.8415845,12.5714287 Z" id="Path"></path>
                <rect id="Rectangle" x="0" y="7.74042032" width="19.1721544" height="1"></rect>
            </g>
            <path d="M9.39480497,0.810772432 L1.13096988,0.810772432 C0.94842251,0.810772432 0.8004,0.958757499 0.8004,1.14130487 L0.8004,7.24381659 C0.8004,7.42636396 0.94842251,7.57438647 1.13096988,7.57438647 L9.39484243,7.57438647 C9.57738982,7.57438647 9.72541236,7.42636396 9.72541236,7.24381659 L9.72541236,1.14130487 C9.72541236,0.958757499 9.57735236,0.810772432 9.39480497,0.810772432 Z" id="Path" fill="#41479B"></path>
            <g transform="translate(0.524239, 0.711467)" fill="#F5F5F5" id="Path">
                <path d="M1.20440073,0.857991357 L1.27756946,1.07742265 L1.50887102,1.07918259 C1.53882751,1.07944472 1.55122201,1.11763924 1.52714448,1.13542591 L1.34107722,1.27285132 L1.41087585,1.49336854 C1.41993769,1.52190209 1.38739745,1.54556772 1.36302035,1.52811806 L1.17485614,1.39365086 L0.986691931,1.52815551 C0.962314837,1.54556772 0.929849484,1.52193953 0.938836432,1.49340598 L1.00863506,1.27288876 L0.822567806,1.13546335 C0.798490274,1.11763924 0.810884776,1.07948216 0.840841267,1.07922004 L1.07214282,1.0774601 L1.14531155,0.8580288 C1.15474785,0.82957013 1.19488955,0.82957013 1.20440073,0.857991357 Z"></path>
                <path d="M1.20440073,2.00584921 L1.27756946,2.22528051 L1.50887102,2.22704045 C1.53882751,2.22730257 1.55122201,2.26549709 1.52714448,2.28328376 L1.34107722,2.42070917 L1.41087585,2.64122639 C1.41993769,2.66975994 1.38739745,2.69342558 1.36302035,2.67597592 L1.17485614,2.54150872 L0.986691931,2.67601336 C0.962314837,2.69342558 0.929849484,2.66979739 0.938836432,2.64126383 L1.00863506,2.42074661 L0.822567806,2.28332121 C0.798490274,2.26549709 0.810884776,2.22734002 0.840841267,2.22707789 L1.07214282,2.22531795 L1.14531155,2.00588665 C1.15474785,1.97746543 1.19488955,1.97746543 1.20440073,2.00584921 Z"></path>
                <path d="M1.20440073,3.15370706 L1.27756946,3.37313836 L1.50887102,3.3748983 C1.53882751,3.37516042 1.55122201,3.41335494 1.52714448,3.43114162 L1.34107722,3.56856702 L1.41087585,3.78908424 C1.41993769,3.8176178 1.38739745,3.84128343 1.36302035,3.82383377 L1.17485614,3.68936657 L0.986691931,3.82387121 C0.962314837,3.84128343 0.929849484,3.81765524 0.938836432,3.78912169 L1.00863506,3.56860447 L0.822567806,3.43117906 C0.798490274,3.41335494 0.810884776,3.37519787 0.840841267,3.37493574 L1.07214282,3.3731758 L1.14531155,3.15374451 C1.15474785,3.12532328 1.19488955,3.12532328 1.20440073,3.15370706 Z"></path>
                <path d="M1.20440073,4.30160236 L1.27756946,4.52103366 L1.50887102,4.5227936 C1.53882751,4.52305572 1.55122201,4.56125025 1.52714448,4.57903691 L1.34107722,4.71646232 L1.41087585,4.93697954 C1.41993769,4.96551309 1.38739745,4.98917873 1.36302035,4.97172907 L1.17485614,4.83726187 L0.986691931,4.97176651 C0.962314837,4.98917873 0.929849484,4.96555054 0.938836432,4.93701698 L1.00863506,4.71649976 L0.822567806,4.57907436 C0.798490274,4.56125025 0.810884776,4.52309317 0.840841267,4.52283105 L1.07214282,4.5210711 L1.14531155,4.3016398 C1.15474785,4.27318114 1.19488955,4.27318114 1.20440073,4.30160236 Z"></path>
                <path d="M1.20440073,5.44946021 L1.27756946,5.66889151 L1.50887102,5.67065145 C1.53882751,5.67091358 1.55122201,5.7091081 1.52714448,5.72689477 L1.34107722,5.86432017 L1.41087585,6.08483739 C1.41993769,6.11337095 1.38739745,6.13703658 1.36302035,6.11958692 L1.17485614,5.98511972 L0.986691931,6.11962436 C0.962314837,6.13703658 0.929849484,6.11340839 0.938836432,6.08487484 L1.00863506,5.86435762 L0.822567806,5.72693221 C0.798490274,5.7091081 0.810884776,5.67095102 0.840841267,5.6706889 L1.07214282,5.66892895 L1.14531155,5.44949766 C1.15474785,5.42100155 1.19488955,5.42100155 1.20440073,5.44946021 Z"></path>
                <path d="M2.09534423,1.42076149 L2.16851295,1.64019278 L2.39981452,1.64195273 C2.42977101,1.64221485 2.4421655,1.68040938 2.41808798,1.69819604 L2.23202072,1.83562145 L2.30181934,2.05613867 C2.31088118,2.08467222 2.27834094,2.10833785 2.25396384,2.09088819 L2.06579964,1.95638355 L1.87763543,2.09088819 C1.85325833,2.10830041 1.82079298,2.08467222 1.82977993,2.05613867 L1.89957855,1.83562145 L1.7135113,1.69819604 C1.68943377,1.68037193 1.70182826,1.64221485 1.73178476,1.64195273 L1.96308632,1.64019278 L2.03625504,1.42076149 C2.04565389,1.39237771 2.08587049,1.39237771 2.09534423,1.42076149 Z"></path>
                <path d="M2.09534423,2.56865678 L2.16851295,2.78808808 L2.39981452,2.78984803 C2.42977101,2.79011015 2.4421655,2.82830468 2.41808798,2.84609134 L2.23202072,2.98351674 L2.30181934,3.20403397 C2.31088118,3.23256752 2.27834094,3.25623315 2.25396384,3.23878349 L2.06579964,3.10427885 L1.87763543,3.23878349 C1.85325833,3.25619571 1.82079298,3.23260497 1.82977993,3.20403397 L1.89957855,2.98351674 L1.7135113,2.84609134 C1.68943377,2.82826723 1.70182826,2.79011015 1.73178476,2.78984803 L1.96308632,2.78808808 L2.03625504,2.56865678 C2.04565389,2.54023556 2.08587049,2.54023556 2.09534423,2.56865678 Z"></path>
                <path d="M2.09534423,3.71651464 L2.16851295,3.93594593 L2.39981452,3.93770588 C2.42977101,3.937968 2.4421655,3.97616253 2.41808798,3.99394919 L2.23202072,4.1313746 L2.30181934,4.35189182 C2.31088118,4.38042537 2.27834094,4.404091 2.25396384,4.38664134 L2.06579964,4.2521367 L1.87763543,4.38664134 C1.85325833,4.40405356 1.82079298,4.38042537 1.82977993,4.35189182 L1.89957855,4.1313746 L1.7135113,3.99394919 C1.68943377,3.97612508 1.70182826,3.937968 1.73178476,3.93770588 L1.96308632,3.93594593 L2.03625504,3.71651464 C2.04565389,3.68809342 2.08587049,3.68809342 2.09534423,3.71651464 Z"></path>
                <path d="M2.09534423,4.86437249 L2.16851295,5.08380379 L2.39981452,5.08556374 C2.42977101,5.08582585 2.4421655,5.12402038 2.41808798,5.14180704 L2.23202072,5.27923245 L2.30181934,5.49974967 C2.31088118,5.52828322 2.27834094,5.55194886 2.25396384,5.5344992 L2.06579964,5.39999455 L1.87763543,5.5344992 C1.85325833,5.55191141 1.82079298,5.52828322 1.82977993,5.49974967 L1.89957855,5.27923245 L1.7135113,5.14180704 C1.68943377,5.12398294 1.70182826,5.08582585 1.73178476,5.08556374 L1.96308632,5.08380379 L2.03625504,4.86437249 C2.04565389,4.83598871 2.08587049,4.83598871 2.09534423,4.86437249 Z"></path>
                <path d="M2.98628772,0.857991357 L3.05945645,1.07742265 L3.290758,1.07918259 C3.3207145,1.07944472 3.33310899,1.11763924 3.30903146,1.13542591 L3.12296421,1.27285132 L3.19276283,1.49336854 C3.20182467,1.52190209 3.16928443,1.54556772 3.14490734,1.52811806 L2.95674313,1.39361342 L2.76857892,1.52811806 C2.74420182,1.54553027 2.71173648,1.52190209 2.72072343,1.49336854 L2.79052205,1.27285132 L2.60445479,1.13542591 C2.58037726,1.11760179 2.59277176,1.07944472 2.62272825,1.07918259 L2.85402981,1.07742265 L2.92719854,0.857991357 C2.93663483,0.82957013 2.97681398,0.82957013 2.98628772,0.857991357 Z"></path>
                <path d="M2.98628772,2.00584921 L3.05945645,2.22528051 L3.290758,2.22704045 C3.3207145,2.22730257 3.33310899,2.26549709 3.30903146,2.28328376 L3.12296421,2.42070917 L3.19276283,2.64122639 C3.20182467,2.66975994 3.16928443,2.69342558 3.14490734,2.67597592 L2.95674313,2.54147127 L2.76857892,2.67597592 C2.74420182,2.69338813 2.71173648,2.66975994 2.72072343,2.64122639 L2.79052205,2.42070917 L2.60445479,2.28328376 C2.58037726,2.26545965 2.59277176,2.22730257 2.62272825,2.22704045 L2.85402981,2.22528051 L2.92719854,2.00584921 C2.93663483,1.97746543 2.97681398,1.97746543 2.98628772,2.00584921 Z"></path>
                <path d="M2.98628772,3.15370706 L3.05945645,3.37313836 L3.290758,3.3748983 C3.3207145,3.37516042 3.33310899,3.41335494 3.30903146,3.43114162 L3.12296421,3.56856702 L3.19276283,3.78908424 C3.20182467,3.8176178 3.16928443,3.84128343 3.14490734,3.82383377 L2.95674313,3.68932913 L2.76857892,3.82383377 C2.74420182,3.84124598 2.71173648,3.8176178 2.72072343,3.78908424 L2.79052205,3.56856702 L2.60445479,3.43114162 C2.58037726,3.4133175 2.59277176,3.37516042 2.62272825,3.3748983 L2.85402981,3.37313836 L2.92719854,3.15370706 C2.93663483,3.12532328 2.97681398,3.12532328 2.98628772,3.15370706 Z"></path>
                <path d="M2.98628772,4.30160236 L3.05945645,4.52103366 L3.290758,4.5227936 C3.3207145,4.52305572 3.33310899,4.56125025 3.30903146,4.57903691 L3.12296421,4.71646232 L3.19276283,4.93697954 C3.20182467,4.96551309 3.16928443,4.98917873 3.14490734,4.97172907 L2.95674313,4.83722442 L2.76857892,4.97172907 C2.74420182,4.98914128 2.71173648,4.96551309 2.72072343,4.93697954 L2.79052205,4.71646232 L2.60445479,4.57903691 C2.58037726,4.5612128 2.59277176,4.52305572 2.62272825,4.5227936 L2.85402981,4.52103366 L2.92719854,4.30160236 C2.93663483,4.27318114 2.97681398,4.27318114 2.98628772,4.30160236 Z"></path>
                <path d="M2.98628772,5.44946021 L3.05945645,5.66889151 L3.290758,5.67065145 C3.3207145,5.67091358 3.33310899,5.7091081 3.30903146,5.72689477 L3.12296421,5.86432017 L3.19276283,6.08483739 C3.20182467,6.11337095 3.16928443,6.13703658 3.14490734,6.11958692 L2.95674313,5.98508228 L2.76857892,6.11958692 C2.74420182,6.13699913 2.71173648,6.11337095 2.72072343,6.08483739 L2.79052205,5.86432017 L2.60445479,5.72689477 C2.58037726,5.70907065 2.59277176,5.67091358 2.62272825,5.67065145 L2.85402981,5.66889151 L2.92719854,5.44946021 C2.93663483,5.42100155 2.97681398,5.42100155 2.98628772,5.44946021 Z"></path>
                <path d="M3.87726866,1.42076149 L3.95043739,1.64019278 L4.18173894,1.64195273 C4.21169544,1.64221485 4.22408993,1.68040938 4.2000124,1.69819604 L4.01394515,1.83562145 L4.08374377,2.05613867 C4.09280561,2.08467222 4.06026537,2.10833785 4.03588828,2.09088819 L3.84772407,1.95638355 L3.65955986,2.09088819 C3.63518276,2.10830041 3.60271742,2.08467222 3.61170437,2.05613867 L3.68150299,1.83562145 L3.49543573,1.69819604 C3.4713582,1.68037193 3.4837527,1.64221485 3.51370919,1.64195273 L3.74501075,1.64019278 L3.81817948,1.42076149 C3.82757833,1.39237771 3.86779492,1.39237771 3.87726866,1.42076149 Z"></path>
                <path d="M3.87726866,2.56865678 L3.95043739,2.78808808 L4.18173894,2.78984803 C4.21169544,2.79011015 4.22408993,2.82830468 4.2000124,2.84609134 L4.01394515,2.98351674 L4.08374377,3.20403397 C4.09280561,3.23256752 4.06026537,3.25623315 4.03588828,3.23878349 L3.84772407,3.10427885 L3.65955986,3.23878349 C3.63518276,3.25619571 3.60271742,3.23260497 3.61170437,3.20403397 L3.68150299,2.98351674 L3.49543573,2.84609134 C3.4713582,2.82826723 3.4837527,2.79011015 3.51370919,2.78984803 L3.74501075,2.78808808 L3.81817948,2.56865678 C3.82757833,2.54023556 3.86779492,2.54023556 3.87726866,2.56865678 Z"></path>
                <path d="M3.87726866,3.71651464 L3.95043739,3.93594593 L4.18173894,3.93770588 C4.21169544,3.937968 4.22408993,3.97616253 4.2000124,3.99394919 L4.01394515,4.1313746 L4.08374377,4.35189182 C4.09280561,4.38042537 4.06026537,4.404091 4.03588828,4.38664134 L3.84772407,4.2521367 L3.65955986,4.38664134 C3.63518276,4.40405356 3.60271742,4.38042537 3.61170437,4.35189182 L3.68150299,4.1313746 L3.49543573,3.99394919 C3.4713582,3.97612508 3.4837527,3.937968 3.51370919,3.93770588 L3.74501075,3.93594593 L3.81817948,3.71651464 C3.82757833,3.68809342 3.86779492,3.68809342 3.87726866,3.71651464 Z"></path>
                <path d="M3.87726866,4.86437249 L3.95043739,5.08380379 L4.18173894,5.08556374 C4.21169544,5.08582585 4.22408993,5.12402038 4.2000124,5.14180704 L4.01394515,5.27923245 L4.08374377,5.49974967 C4.09280561,5.52828322 4.06026537,5.55194886 4.03588828,5.5344992 L3.84772407,5.39999455 L3.65955986,5.5344992 C3.63518276,5.55191141 3.60271742,5.52828322 3.61170437,5.49974967 L3.68150299,5.27923245 L3.49543573,5.14180704 C3.4713582,5.12398294 3.4837527,5.08582585 3.51370919,5.08556374 L3.74501075,5.08380379 L3.81817948,4.86437249 C3.82757833,4.83598871 3.86779492,4.83598871 3.87726866,4.86437249 Z"></path>
                <path d="M4.76821215,0.857991357 L4.84138088,1.07742265 L5.07268244,1.07918259 C5.10263893,1.07944472 5.11503343,1.11763924 5.0909559,1.13542591 L4.90488864,1.27285132 L4.97468727,1.49336854 C4.98374911,1.52190209 4.95120887,1.54556772 4.92683178,1.52811806 L4.73863012,1.39361342 L4.55046591,1.52811806 C4.52608882,1.54553027 4.49362346,1.52190209 4.50261041,1.49336854 L4.57240904,1.27285132 L4.38634178,1.13542591 C4.36226425,1.11760179 4.37465875,1.07944472 4.40461524,1.07918259 L4.6359168,1.07742265 L4.70908553,0.857991357 C4.71855927,0.82957013 4.75873841,0.82957013 4.76821215,0.857991357 Z"></path>
                <path d="M4.76821215,2.00584921 L4.84138088,2.22528051 L5.07268244,2.22704045 C5.10263893,2.22730257 5.11503343,2.26549709 5.0909559,2.28328376 L4.90488864,2.42070917 L4.97468727,2.64122639 C4.98374911,2.66975994 4.95120887,2.69342558 4.92683178,2.67597592 L4.73863012,2.54147127 L4.55046591,2.67597592 C4.52608882,2.69338813 4.49362346,2.66975994 4.50261041,2.64122639 L4.57240904,2.42070917 L4.38634178,2.28328376 C4.36226425,2.26545965 4.37465875,2.22730257 4.40461524,2.22704045 L4.6359168,2.22528051 L4.70908553,2.00584921 C4.71855927,1.97746543 4.75873841,1.97746543 4.76821215,2.00584921 Z"></path>
                <path d="M4.76821215,3.15370706 L4.84138088,3.37313836 L5.07268244,3.3748983 C5.10263893,3.37516042 5.11503343,3.41335494 5.0909559,3.43114162 L4.90488864,3.56856702 L4.97468727,3.78908424 C4.98374911,3.8176178 4.95120887,3.84128343 4.92683178,3.82383377 L4.73863012,3.68932913 L4.55046591,3.82383377 C4.52608882,3.84124598 4.49362346,3.8176178 4.50261041,3.78908424 L4.57240904,3.56856702 L4.38634178,3.43114162 C4.36226425,3.4133175 4.37465875,3.37516042 4.40461524,3.3748983 L4.6359168,3.37313836 L4.70908553,3.15370706 C4.71855927,3.12532328 4.75873841,3.12532328 4.76821215,3.15370706 Z"></path>
                <path d="M4.76821215,4.30160236 L4.84138088,4.52103366 L5.07268244,4.5227936 C5.10263893,4.52305572 5.11503343,4.56125025 5.0909559,4.57903691 L4.90488864,4.71646232 L4.97468727,4.93697954 C4.98374911,4.96551309 4.95120887,4.98917873 4.92683178,4.97172907 L4.73863012,4.83722442 L4.55046591,4.97172907 C4.52608882,4.98914128 4.49362346,4.96551309 4.50261041,4.93697954 L4.57240904,4.71646232 L4.38634178,4.57903691 C4.36226425,4.5612128 4.37465875,4.52305572 4.40461524,4.5227936 L4.6359168,4.52103366 L4.70908553,4.30160236 C4.71855927,4.27318114 4.75873841,4.27318114 4.76821215,4.30160236 Z"></path>
                <path d="M4.76821215,5.44946021 L4.84138088,5.66889151 L5.07268244,5.67065145 C5.10263893,5.67091358 5.11503343,5.7091081 5.0909559,5.72689477 L4.90488864,5.86432017 L4.97468727,6.08483739 C4.98374911,6.11337095 4.95120887,6.13703658 4.92683178,6.11958692 L4.73863012,5.98508228 L4.55046591,6.11958692 C4.52608882,6.13699913 4.49362346,6.11337095 4.50261041,6.08483739 L4.57240904,5.86432017 L4.38634178,5.72689477 C4.36226425,5.70907065 4.37465875,5.67091358 4.40461524,5.67065145 L4.6359168,5.66889151 L4.70908553,5.44946021 C4.71855927,5.42100155 4.75873841,5.42100155 4.76821215,5.44946021 Z"></path>
                <path d="M5.65915565,1.42076149 L5.73232438,1.64019278 L5.96362594,1.64195273 C5.99358243,1.64221485 6.00597693,1.68040938 5.9818994,1.69819604 L5.79583214,1.83562145 L5.86563077,2.05613867 C5.87469261,2.08467222 5.84215237,2.10833785 5.81777527,2.09088819 L5.62961106,1.95638355 L5.44144685,2.09088819 C5.41706976,2.10830041 5.3846044,2.08467222 5.39359135,2.05613867 L5.46338998,1.83562145 L5.27732273,1.69819604 C5.25324519,1.68037193 5.26563969,1.64221485 5.29559618,1.64195273 L5.52689774,1.64019278 L5.60006647,1.42076149 C5.60954021,1.39237771 5.64968191,1.39237771 5.65915565,1.42076149 Z"></path>
                <path d="M5.65915565,2.56865678 L5.73232438,2.78808808 L5.96362594,2.78984803 C5.99358243,2.79011015 6.00597693,2.82830468 5.9818994,2.84609134 L5.79583214,2.98351674 L5.86563077,3.20403397 C5.87469261,3.23256752 5.84215237,3.25623315 5.81777527,3.23878349 L5.62961106,3.10427885 L5.44144685,3.23878349 C5.41706976,3.25619571 5.3846044,3.23260497 5.39359135,3.20403397 L5.46338998,2.98351674 L5.27732273,2.84609134 C5.25324519,2.82826723 5.26563969,2.79011015 5.29559618,2.78984803 L5.52689774,2.78808808 L5.60006647,2.56865678 C5.60954021,2.54023556 5.64968191,2.54023556 5.65915565,2.56865678 Z"></path>
                <path d="M5.65915565,3.71651464 L5.73232438,3.93594593 L5.96362594,3.93770588 C5.99358243,3.937968 6.00597693,3.97616253 5.9818994,3.99394919 L5.79583214,4.1313746 L5.86563077,4.35189182 C5.87469261,4.38042537 5.84215237,4.404091 5.81777527,4.38664134 L5.62961106,4.2521367 L5.44144685,4.38664134 C5.41706976,4.40405356 5.3846044,4.38042537 5.39359135,4.35189182 L5.46338998,4.1313746 L5.27732273,3.99394919 C5.25324519,3.97612508 5.26563969,3.937968 5.29559618,3.93770588 L5.52689774,3.93594593 L5.60006647,3.71651464 C5.60954021,3.68809342 5.64968191,3.68809342 5.65915565,3.71651464 Z"></path>
                <path d="M5.65915565,4.86437249 L5.73232438,5.08380379 L5.96362594,5.08556374 C5.99358243,5.08582585 6.00597693,5.12402038 5.9818994,5.14180704 L5.79583214,5.27923245 L5.86563077,5.49974967 C5.87469261,5.52828322 5.84215237,5.55194886 5.81777527,5.5344992 L5.62961106,5.39999455 L5.44144685,5.5344992 C5.41706976,5.55191141 5.3846044,5.52828322 5.39359135,5.49974967 L5.46338998,5.27923245 L5.27732273,5.14180704 C5.25324519,5.12398294 5.26563969,5.08582585 5.29559618,5.08556374 L5.52689774,5.08380379 L5.60006647,4.86437249 C5.60954021,4.83598871 5.64968191,4.83598871 5.65915565,4.86437249 Z"></path>
                <path d="M6.55013659,0.857991357 L6.62330532,1.07742265 L6.85460688,1.07918259 C6.88456337,1.07944472 6.89695787,1.11763924 6.87288034,1.13542591 L6.68681308,1.27285132 L6.75661171,1.49336854 C6.76567355,1.52190209 6.73313331,1.54556772 6.70875621,1.52811806 L6.520592,1.39361342 L6.33242779,1.52811806 C6.3080507,1.54553027 6.27558534,1.52190209 6.28457229,1.49336854 L6.35437092,1.27285132 L6.16830367,1.13542591 C6.14422613,1.11760179 6.15662063,1.07944472 6.18657713,1.07918259 L6.41787868,1.07742265 L6.49104741,0.857991357 C6.50044626,0.82957013 6.54066285,0.82957013 6.55013659,0.857991357 Z"></path>
                <path d="M6.55013659,2.00584921 L6.62330532,2.22528051 L6.85460688,2.22704045 C6.88456337,2.22730257 6.89695787,2.26549709 6.87288034,2.28328376 L6.68681308,2.42070917 L6.75661171,2.64122639 C6.76567355,2.66975994 6.73313331,2.69342558 6.70875621,2.67597592 L6.520592,2.54147127 L6.33242779,2.67597592 C6.3080507,2.69338813 6.27558534,2.66975994 6.28457229,2.64122639 L6.35437092,2.42070917 L6.16830367,2.28328376 C6.14422613,2.26545965 6.15662063,2.22730257 6.18657713,2.22704045 L6.41787868,2.22528051 L6.49104741,2.00584921 C6.50044626,1.97746543 6.54066285,1.97746543 6.55013659,2.00584921 Z"></path>
                <path d="M6.55013659,3.15370706 L6.62330532,3.37313836 L6.85460688,3.3748983 C6.88456337,3.37516042 6.89695787,3.41335494 6.87288034,3.43114162 L6.68681308,3.56856702 L6.75661171,3.78908424 C6.76567355,3.8176178 6.73313331,3.84128343 6.70875621,3.82383377 L6.520592,3.68932913 L6.33242779,3.82383377 C6.3080507,3.84124598 6.27558534,3.8176178 6.28457229,3.78908424 L6.35437092,3.56856702 L6.16830367,3.43114162 C6.14422613,3.4133175 6.15662063,3.37516042 6.18657713,3.3748983 L6.41787868,3.37313836 L6.49104741,3.15370706 C6.50044626,3.12532328 6.54066285,3.12532328 6.55013659,3.15370706 Z"></path>
                <path d="M6.55013659,4.30160236 L6.62330532,4.52103366 L6.85460688,4.5227936 C6.88456337,4.52305572 6.89695787,4.56125025 6.87288034,4.57903691 L6.68681308,4.71646232 L6.75661171,4.93697954 C6.76567355,4.96551309 6.73313331,4.98917873 6.70875621,4.97172907 L6.520592,4.83722442 L6.33242779,4.97172907 C6.3080507,4.98914128 6.27558534,4.96551309 6.28457229,4.93697954 L6.35437092,4.71646232 L6.16830367,4.57903691 C6.14422613,4.5612128 6.15662063,4.52305572 6.18657713,4.5227936 L6.41787868,4.52103366 L6.49104741,4.30160236 C6.50044626,4.27318114 6.54066285,4.27318114 6.55013659,4.30160236 Z"></path>
                <path d="M6.55013659,5.44946021 L6.62330532,5.66889151 L6.85460688,5.67065145 C6.88456337,5.67091358 6.89695787,5.7091081 6.87288034,5.72689477 L6.68681308,5.86432017 L6.75661171,6.08483739 C6.76567355,6.11337095 6.73313331,6.13703658 6.70875621,6.11958692 L6.520592,5.98508228 L6.33242779,6.11958692 C6.3080507,6.13699913 6.27558534,6.11337095 6.28457229,6.08483739 L6.35437092,5.86432017 L6.16830367,5.72689477 C6.14422613,5.70907065 6.15662063,5.67091358 6.18657713,5.67065145 L6.41787868,5.66889151 L6.49104741,5.44946021 C6.50044626,5.42100155 6.54066285,5.42100155 6.55013659,5.44946021 Z"></path>
                <path d="M7.44108008,1.42076149 L7.51424881,1.64019278 L7.74555038,1.64195273 C7.77550687,1.64221485 7.78790136,1.68040938 7.76382383,1.69819604 L7.57775658,1.83562145 L7.6475552,2.05613867 C7.65661704,2.08467222 7.6240768,2.10833785 7.5996997,2.09088819 L7.41153549,1.95638355 L7.22337128,2.09088819 C7.19899419,2.10830041 7.16652884,2.08467222 7.17551579,2.05613867 L7.24531441,1.83562145 L7.05924716,1.69819604 C7.03516963,1.68037193 7.04756413,1.64221485 7.07752062,1.64195273 L7.30882218,1.64019278 L7.3819909,1.42076149 C7.3914272,1.39237771 7.43164379,1.39237771 7.44108008,1.42076149 Z"></path>
                <path d="M7.44108008,2.56865678 L7.51424881,2.78808808 L7.74555038,2.78984803 C7.77550687,2.79011015 7.78790136,2.82830468 7.76382383,2.84609134 L7.57775658,2.98351674 L7.6475552,3.20403397 C7.65661704,3.23256752 7.6240768,3.25623315 7.5996997,3.23878349 L7.41153549,3.10427885 L7.22337128,3.23878349 C7.19899419,3.25619571 7.16652884,3.23260497 7.17551579,3.20403397 L7.24531441,2.98351674 L7.05924716,2.84609134 C7.03516963,2.82826723 7.04756413,2.79011015 7.07752062,2.78984803 L7.30882218,2.78808808 L7.3819909,2.56865678 C7.3914272,2.54023556 7.43164379,2.54023556 7.44108008,2.56865678 Z"></path>
                <path d="M7.44108008,3.71651464 L7.51424881,3.93594593 L7.74555038,3.93770588 C7.77550687,3.937968 7.78790136,3.97616253 7.76382383,3.99394919 L7.57775658,4.1313746 L7.6475552,4.35189182 C7.65661704,4.38042537 7.6240768,4.404091 7.5996997,4.38664134 L7.41153549,4.2521367 L7.22337128,4.38664134 C7.19899419,4.40405356 7.16652884,4.38042537 7.17551579,4.35189182 L7.24531441,4.1313746 L7.05924716,3.99394919 C7.03516963,3.97612508 7.04756413,3.937968 7.07752062,3.93770588 L7.30882218,3.93594593 L7.3819909,3.71651464 C7.3914272,3.68809342 7.43164379,3.68809342 7.44108008,3.71651464 Z"></path>
                <path d="M7.44108008,4.86437249 L7.51424881,5.08380379 L7.74555038,5.08556374 C7.77550687,5.08582585 7.78790136,5.12402038 7.76382383,5.14180704 L7.57775658,5.27923245 L7.6475552,5.49974967 C7.65661704,5.52828322 7.6240768,5.55194886 7.5996997,5.5344992 L7.41153549,5.39999455 L7.22337128,5.5344992 C7.19899419,5.55191141 7.16652884,5.52828322 7.17551579,5.49974967 L7.24531441,5.27923245 L7.05924716,5.14180704 C7.03516963,5.12398294 7.04756413,5.08582585 7.07752062,5.08556374 L7.30882218,5.08380379 L7.3819909,4.86437249 C7.3914272,4.83598871 7.43164379,4.83598871 7.44108008,4.86437249 Z"></path>
                <path d="M8.33206099,0.857991357 L8.40522971,1.07742265 L8.63653131,1.07918259 C8.6664878,1.07944472 8.67888231,1.11763924 8.65480476,1.13542591 L8.46873753,1.27285132 L8.53853617,1.49336854 C8.54759798,1.52190209 8.51505772,1.54556772 8.49068066,1.52811806 L8.30251646,1.39361342 L8.11435219,1.52811806 C8.08997513,1.54553027 8.05750978,1.52190209 8.06649675,1.49336854 L8.13629531,1.27285132 L7.9502281,1.13542591 C7.92615057,1.11760179 7.93854506,1.07944472 7.96850156,1.07918259 L8.19980313,1.07742265 L8.27297186,0.857991357 C8.28240817,0.82957013 8.32254984,0.82957013 8.33206099,0.857991357 Z"></path>
                <path d="M8.33206099,2.00584921 L8.40522971,2.22528051 L8.63653131,2.22704045 C8.6664878,2.22730257 8.67888231,2.26549709 8.65480476,2.28328376 L8.46873753,2.42070917 L8.53853617,2.64122639 C8.54759798,2.66975994 8.51505772,2.69342558 8.49068066,2.67597592 L8.30251646,2.54147127 L8.11435219,2.67597592 C8.08997513,2.69338813 8.05750978,2.66975994 8.06649675,2.64122639 L8.13629531,2.42070917 L7.9502281,2.28328376 C7.92615057,2.26545965 7.93854506,2.22730257 7.96850156,2.22704045 L8.19980313,2.22528051 L8.27297186,2.00584921 C8.28240817,1.97746543 8.32254984,1.97746543 8.33206099,2.00584921 Z"></path>
                <path d="M8.33206099,3.15370706 L8.40522971,3.37313836 L8.63653131,3.3748983 C8.6664878,3.37516042 8.67888231,3.41335494 8.65480476,3.43114162 L8.46873753,3.56856702 L8.53853617,3.78908424 C8.54759798,3.8176178 8.51505772,3.84128343 8.49068066,3.82383377 L8.30251646,3.68932913 L8.11435219,3.82383377 C8.08997513,3.84124598 8.05750978,3.8176178 8.06649675,3.78908424 L8.13629531,3.56856702 L7.9502281,3.43114162 C7.92615057,3.4133175 7.93854506,3.37516042 7.96850156,3.3748983 L8.19980313,3.37313836 L8.27297186,3.15370706 C8.28240817,3.12532328 8.32254984,3.12532328 8.33206099,3.15370706 Z"></path>
                <path d="M8.33206099,4.30160236 L8.40522971,4.52103366 L8.63653131,4.5227936 C8.6664878,4.52305572 8.67888231,4.56125025 8.65480476,4.57903691 L8.46873753,4.71646232 L8.53853617,4.93697954 C8.54759798,4.96551309 8.51505772,4.98917873 8.49068066,4.97172907 L8.30251646,4.83722442 L8.11435219,4.97172907 C8.08997513,4.98914128 8.05750978,4.96551309 8.06649675,4.93697954 L8.13629531,4.71646232 L7.9502281,4.57903691 C7.92615057,4.5612128 7.93854506,4.52305572 7.96850156,4.5227936 L8.19980313,4.52103366 L8.27297186,4.30160236 C8.28240817,4.27318114 8.32254984,4.27318114 8.33206099,4.30160236 Z"></path>
                <path d="M8.33206099,5.44946021 L8.40522971,5.66889151 L8.63653131,5.67065145 C8.6664878,5.67091358 8.67888231,5.7091081 8.65480476,5.72689477 L8.46873753,5.86432017 L8.53853617,6.08483739 C8.54759798,6.11337095 8.51505772,6.13703658 8.49068066,6.11958692 L8.30251646,5.98508228 L8.11435219,6.11958692 C8.08997513,6.13699913 8.05750978,6.11337095 8.06649675,6.08483739 L8.13629531,5.86432017 L7.9502281,5.72689477 C7.92615057,5.70907065 7.93854506,5.67091358 7.96850156,5.67065145 L8.19980313,5.66889151 L8.27297186,5.44946021 C8.28240817,5.42100155 8.32254984,5.42100155 8.33206099,5.44946021 Z"></path>
            </g>
        </g>
    </g>
</svg>