<?xml version="1.0" encoding="UTF-8"?>
<svg width="24px" height="24px" viewBox="0 0 24 24" version="1.1" xmlns="http://www.w3.org/2000/svg" xmlns:xlink="http://www.w3.org/1999/xlink">
    <!-- Generator: Sketch 57.1 (83088) - https://sketch.com -->
    <title>icons/credit_card</title>
    <desc>Created with Sketch.</desc>
    <g id="icons/credit_card" stroke="none" stroke-width="1" fill="none" fill-rule="evenodd">
        <g id="Group" transform="translate(1.995000, 5.246625)" fill="#9C9FAB" fill-rule="nonzero">
            <path d="M18.009,13.34 L2.001,13.34 C0.867100001,13.34 0,12.4729 0,11.4057 L0,5.66950001 C0,5.46940001 0.1334,5.33599999 0.333499999,5.33599999 L19.6765,5.33599999 C19.8766,5.33599999 20.01,5.46940001 20.01,5.66950001 L20.01,11.4057 C20.01,12.4729 19.0762,13.34 18.009,13.34 Z M0.667000001,6.003 L0.667000001,11.4057 C0.667000001,12.0727 1.2673,12.673 2.001,12.673 L18.009,12.673 C18.7427,12.673 19.343,12.0727 19.343,11.4057 L19.343,6.003 L0.667000001,6.003 Z" id="Shape"></path>
            <path d="M19.6765,3.33499999 L0.333499999,3.33499999 C0.1334,3.33499999 0,3.2016 0,3.0015 L0,2.1344 C0,0.933799999 0.933799999,0 2.001,0 L18.009,0 C19.1429,0 20.01,0.933799999 20.01,2.1344 L20.01,3.0015 C20.01,3.2016 19.8766,3.33499999 19.6765,3.33499999 Z M0.667000001,2.66800001 L19.343,2.66800001 L19.343,2.1344 C19.343,1.334 18.7427,0.667000001 18.009,0.667000001 L2.001,0.667000001 C1.2673,0.667000001 0.667000001,1.334 0.667000001,2.1344 L0.667000001,2.66800001 Z" id="Shape"></path>
            <path d="M6.33649999,9.33799999 L3.0015,9.33799999 C2.8014,9.33799999 2.66800001,9.2046 2.66800001,9.0045 C2.66800001,8.8044 2.8014,8.67100001 3.0015,8.67100001 L6.33649999,8.67100001 C6.53659999,8.67100001 6.67000001,8.8044 6.67000001,9.0045 C6.67000001,9.2046 6.53659999,9.33799999 6.33649999,9.33799999 Z" id="Path"></path>
            <path d="M9.0045,10.672 L3.0015,10.672 C2.8014,10.672 2.66800001,10.5386 2.66800001,10.3385 C2.66800001,10.1384 2.8014,10.005 3.0015,10.005 L9.0045,10.005 C9.2046,10.005 9.33799999,10.1384 9.33799999,10.3385 C9.33799999,10.5386 9.2046,10.672 9.0045,10.672 Z" id="Path"></path>
            <path d="M16.008,11.0055 C15.0742,11.0055 14.3405,10.2718 14.3405,9.33799999 C14.3405,8.4042 15.0742,7.67050001 16.008,7.67050001 C16.9418,7.67050001 17.6755,8.4042 17.6755,9.33799999 C17.6755,10.2718 16.9418,11.0055 16.008,11.0055 Z M16.008,8.33749999 C15.4744,8.33749999 15.0075,8.8044 15.0075,9.33799999 C15.0075,9.87160001 15.4744,10.3385 16.008,10.3385 C16.5416,10.3385 17.0085,9.87160001 17.0085,9.33799999 C17.0085,8.8044 16.5416,8.33749999 16.008,8.33749999 Z" id="Shape"></path>
            <path d="M14.3405,11.0055 C13.4067,11.0055 12.673,10.2718 12.673,9.33799999 C12.673,8.4042 13.4067,7.67050001 14.3405,7.67050001 C14.7407,7.67050001 15.0742,7.8039 15.4077,8.07070001 C15.4744,8.13739999 15.5411,8.2041 15.5411,8.33749999 C15.5411,8.47090001 15.4744,8.53759999 15.4077,8.6043 C15.1409,8.8044 15.0075,9.07120001 15.0075,9.4047 C15.0075,9.73819999 15.1409,10.005 15.4077,10.2051 C15.4744,10.2718 15.5411,10.3385 15.5411,10.4719 C15.5411,10.6053 15.4744,10.672 15.4077,10.7387 C15.0742,10.8721 14.7407,11.0055 14.3405,11.0055 Z M14.3405,8.33749999 C13.8069,8.33749999 13.34,8.8044 13.34,9.33799999 C13.34,9.87160001 13.8069,10.3385 14.3405,10.3385 C14.4739,10.3385 14.5406,10.3385 14.674,10.2718 C14.4739,10.005 14.3405,9.67150001 14.3405,9.33799999 C14.3405,9.0045 14.4739,8.67100001 14.674,8.4042 C14.5406,8.33749999 14.4739,8.33749999 14.3405,8.33749999 Z" id="Shape"></path>
        </g>
    </g>
</svg>