<?xml version="1.0" encoding="UTF-8"?>
<svg width="24px" height="24px" viewBox="0 0 24 24" version="1.1" xmlns="http://www.w3.org/2000/svg" xmlns:xlink="http://www.w3.org/1999/xlink">
    <!-- Generator: Sketch 57.1 (83088) - https://sketch.com -->
    <title>icons/error</title>
    <desc>Created with Sketch.</desc>
    <g id="icons/error" stroke="none" stroke-width="1" fill="none" fill-rule="evenodd">
        <g id="Group" transform="translate(1.995000, 1.995000)">
            <path d="M10.005,0 C4.48837683,0 0,4.48837683 0,10.005 C0,15.5216232 4.48837683,20.01 10.005,20.01 C15.5216232,20.01 20.01,15.5216232 20.01,10.005 C20.01,4.48837683 15.5216232,0 10.005,0 Z" id="Shape" stroke="#DC3545"></path>
            <g id="close" transform="translate(6.670000, 6.670000)" fill="#DC3545" fill-rule="nonzero">
                <path d="M6.50710796,0.154517375 C6.3013496,-0.0515057912 5.97127891,-0.0515057912 5.76552055,0.154517375 L3.33071337,2.59245817 L0.895906169,0.154517375 C0.690147815,-0.0515057912 0.360077122,-0.0515057912 0.154318766,0.154517375 C-0.0514395884,0.36054054 -0.0514395884,0.691036036 0.154318766,0.897059202 L2.58912596,3.335 L0.154318766,5.77294079 C-0.0514395884,5.97896395 -0.0514395884,6.30945945 0.154318766,6.51548261 C0.257197944,6.61849419 0.390083548,6.67 0.527255783,6.67 C0.664428021,6.67 0.797313624,6.61849419 0.900192802,6.51548261 L3.335,4.07754182 L5.7698072,6.51548261 C5.87268638,6.61849419 6.00557199,6.67 6.1427442,6.67 C6.27991646,6.67 6.41280207,6.61849419 6.51568125,6.51548261 C6.72143957,6.30945945 6.72143957,5.97896395 6.51568125,5.77294079 L4.07230077,3.335 L6.50710796,0.897059202 C6.71286632,0.691036036 6.71286632,0.36054054 6.50710796,0.154517375 Z" id="Path"></path>
            </g>
        </g>
    </g>
</svg>