<?xml version="1.0" encoding="UTF-8"?>
<svg width="24px" height="24px" viewBox="0 0 24 24" version="1.1" xmlns="http://www.w3.org/2000/svg" xmlns:xlink="http://www.w3.org/1999/xlink">
    <!-- Generator: Sketch 57.1 (83088) - https://sketch.com -->
    <title>icons/european-union</title>
    <desc>Created with Sketch.</desc>
    <g id="icons/european-union" stroke="none" stroke-width="1" fill="none" fill-rule="evenodd">
        <g id="Group" transform="translate(1.995000, 5.485116)" fill-rule="nonzero">
            <path d="M19.5125421,13.0191032 L0.342341628,13.0191032 C0.153293663,13.0191032 0,12.8658096 0,12.6767616 L0,0.353044651 C0,0.163996686 0.153293663,0.0107030233 0.342341628,0.0107030233 L19.5125809,0.0107030233 C19.7016288,0.0107030233 19.8549225,0.163996686 19.8549225,0.353044651 L19.8549225,12.6767616 C19.8549225,12.8658483 19.7015901,13.0191032 19.5125421,13.0191032 Z" id="Path" fill="#41479B"></path>
            <g transform="translate(4.886163, 1.434825)" fill="#FFE15A" id="Path">
                <path d="M5.18049593,0.0653815116 L5.31777384,0.476943781 L5.75159529,0.48031756 C5.80778616,0.480744126 5.8310536,0.552407847 5.785876,0.585796626 L5.43686438,0.843522327 L5.56770493,1.25713988 C5.5846514,1.310655 5.5236907,1.35501825 5.47797017,1.3223275 L5.12504184,1.07003087 L4.77211356,1.3223275 C4.7264318,1.35497948 4.66543234,1.31069378 4.68237876,1.25713988 L4.81321936,0.843522327 L4.46420773,0.585796626 C4.41903012,0.552407847 4.44229756,0.480744126 4.49848843,0.48031756 L4.9323099,0.476943781 L5.06958781,0.0653815116 C5.08730983,0.0120990698 5.1627351,0.0120990698 5.18049593,0.0653815116 Z"></path>
                <path d="M5.18049593,8.90165791 L5.31777384,9.31322019 L5.75159529,9.31659397 C5.80778616,9.31702051 5.8310536,9.38868423 5.785876,9.42207301 L5.43686438,9.67979874 L5.56770493,10.0934163 C5.5846514,10.1469314 5.5236907,10.1912946 5.47797017,10.1586039 L5.12504184,9.90630728 L4.77211356,10.1586039 C4.7264318,10.1912559 4.66543234,10.1469702 4.68237876,10.0934163 L4.81321936,9.67979874 L4.46420773,9.42207301 C4.41903012,9.38868423 4.44229756,9.31702051 4.49848843,9.31659397 L4.9323099,9.31322019 L5.06958781,8.90165791 C5.08730983,8.84837547 5.1627351,8.84837547 5.18049593,8.90165791 Z"></path>
                <path d="M9.59863413,4.48351971 L9.73591203,4.89508199 L10.1697335,4.89845577 C10.2259244,4.89888231 10.2491918,4.97054603 10.2040142,5.00393481 L9.85500257,5.26166054 L9.98584312,5.67527808 C10.0027896,5.7287932 9.9418289,5.77315644 9.89610837,5.74046568 L9.54318004,5.48816909 L9.19025176,5.74046568 C9.14457,5.77311767 9.08357054,5.72883196 9.10051696,5.67527808 L9.23135756,5.26166054 L8.88234593,5.00393481 C8.83716833,4.97054603 8.86043577,4.89888231 8.91662664,4.89845577 L9.3504481,4.89508199 L9.487726,4.48351971 C9.50544802,4.43023727 9.5808733,4.43023727 9.59863413,4.48351971 Z"></path>
                <path d="M0.762318955,4.48351971 L0.899596862,4.89508199 L1.33341832,4.89845577 C1.38960919,4.89888231 1.41287663,4.97054603 1.36769901,5.00393481 L1.01868738,5.26166054 L1.14952797,5.67527808 C1.16647442,5.7287932 1.10551372,5.77315644 1.0597932,5.74046568 L0.706864884,5.48816909 L0.35393657,5.74046568 C0.308254826,5.77311767 0.247255349,5.72883196 0.264201802,5.67527808 L0.395042384,5.26166054 L0.0460307558,5.00393481 C0.000853139533,4.97054603 0.0241205814,4.89888231 0.0803114533,4.89845577 L0.514132905,4.89508199 L0.651410812,4.48351971 C0.669171628,4.43023727 0.744596917,4.43023727 0.762318955,4.48351971 Z"></path>
                <path d="M1.42559616,2.17632017 L1.56287407,2.58788244 L1.99669552,2.59125622 C2.0528864,2.59168279 2.07615384,2.66334651 2.03097622,2.69673529 L1.68196459,2.95446099 L1.81280517,3.36807855 C1.82975163,3.42159366 1.76879093,3.46595692 1.72307041,3.43326616 L1.37014209,3.18096954 L1.01721378,3.43326616 C0.971532035,3.46591814 0.91053256,3.42163244 0.92747901,3.36807855 L1.05831959,2.95446099 L0.709307965,2.69673529 C0.66413035,2.66334651 0.687397792,2.59168279 0.743588664,2.59125622 L1.17741012,2.58788244 L1.31468802,2.17632017 C1.33244884,2.12303773 1.40779657,2.12303773 1.42559616,2.17632017 Z"></path>
                <path d="M9.07802512,6.59445837 L9.21530302,7.00602066 L9.64912448,7.00939443 C9.70531535,7.00982097 9.72858279,7.08148469 9.68340519,7.11487347 L9.33439356,7.3725992 L9.46523411,7.78621674 C9.48218058,7.83973186 9.42121988,7.8840951 9.37549936,7.85140434 L9.02257103,7.59910775 L8.66964275,7.85140434 C8.62396099,7.88405634 8.56296153,7.83977062 8.57990795,7.78621674 L8.71074855,7.3725992 L8.36173692,7.11487347 C8.31655932,7.08148469 8.33982676,7.00982097 8.39601763,7.00939443 L8.82983909,7.00602066 L8.96711699,6.59445837 C8.98487778,6.54117593 9.06026429,6.54117593 9.07802512,6.59445837 Z"></path>
                <path d="M7.46089914,0.559155405 L7.59817705,0.970717674 L8.0319985,0.974091453 C8.08818938,0.974518025 8.11145682,1.04618175 8.06627917,1.07957052 L7.71726754,1.33729622 L7.84810814,1.75091378 C7.86505461,1.80442889 7.80409391,1.84879215 7.75837339,1.8161014 L7.40544506,1.56380477 L7.05251673,1.8161014 C7.00683502,1.84875337 6.94583551,1.80446768 6.96278198,1.75091378 L7.09362257,1.33729622 L6.74461095,1.07957052 C6.6994333,1.04618175 6.72270074,0.974518025 6.77889161,0.974091453 L7.21271307,0.970717674 L7.34999097,0.559155405 C7.36771304,0.505872964 7.44306074,0.505872964 7.46089914,0.559155405 Z"></path>
                <path d="M3.04272215,8.21162316 L3.18000006,8.62318539 L3.61382151,8.62655917 C3.67001238,8.62698576 3.69327982,8.69864948 3.64810221,8.73203826 L3.29909058,8.98976394 L3.42993116,9.40338153 C3.44687761,9.45689664 3.38591692,9.50125988 3.34019639,9.46856913 L2.98726808,9.21627248 L2.63433977,9.46856913 C2.58865802,9.50122112 2.52765855,9.45693541 2.544605,9.40338153 L2.67544558,8.98976394 L2.32643395,8.73203826 C2.28125634,8.69864948 2.30452378,8.62698576 2.36071465,8.62655917 L2.7945361,8.62318539 L2.93181401,8.21162316 C2.94957483,8.15834071 3.02492256,8.15834071 3.04272215,8.21162316 Z"></path>
                <path d="M8.96711699,2.17632017 L8.82983909,2.58788244 L8.39601763,2.59125622 C8.33982676,2.59168279 8.31655932,2.66334651 8.36173692,2.69673529 L8.71074855,2.95446099 L8.57990795,3.36807855 C8.56296153,3.42159366 8.62392222,3.46595692 8.66964275,3.43326616 L9.02257103,3.18096954 L9.37549936,3.43326616 C9.42118112,3.46591814 9.48218058,3.42163244 9.46523411,3.36807855 L9.33439356,2.95446099 L9.68340519,2.69673529 C9.72858279,2.66334651 9.70531535,2.59168279 9.64912448,2.59125622 L9.21530302,2.58788244 L9.07802512,2.17632017 C9.06026429,2.12303773 8.98487778,2.12303773 8.96711699,2.17632017 Z"></path>
                <path d="M1.31468802,6.59445837 L1.17741012,7.00602066 L0.743588664,7.00939443 C0.687397792,7.00982097 0.66413035,7.08148469 0.709307965,7.11487347 L1.05831959,7.3725992 L0.92747901,7.78621674 C0.91053256,7.83973186 0.971493257,7.8840951 1.01721378,7.85140434 L1.37014209,7.59910775 L1.72307041,7.85140434 C1.76875215,7.88405634 1.82975163,7.83977062 1.81280517,7.78621674 L1.68196459,7.3725992 L2.03097622,7.11487347 C2.07615384,7.08148469 2.0528864,7.00982097 1.99669552,7.00939443 L1.56287407,7.00602066 L1.42559616,6.59445837 C1.40779657,6.54117593 1.33244884,6.54117593 1.31468802,6.59445837 Z"></path>
                <path d="M2.93181401,0.559155405 L2.7945361,0.970717674 L2.36071465,0.974091453 C2.30452378,0.974518025 2.28125634,1.04618175 2.32643395,1.07957052 L2.67544558,1.33729622 L2.544605,1.75091378 C2.52765855,1.80442889 2.58861924,1.84879215 2.63433977,1.8161014 L2.98726808,1.56380477 L3.34019639,1.8161014 C3.38587814,1.84875337 3.44687761,1.80446768 3.42993116,1.75091378 L3.29909058,1.33729622 L3.64810221,1.07957052 C3.69327982,1.04618175 3.67001238,0.974518025 3.61382151,0.974091453 L3.18000006,0.970717674 L3.04272215,0.559155405 C3.02492256,0.505872964 2.94957483,0.505872964 2.93181401,0.559155405 Z"></path>
                <path d="M7.34995221,8.21162316 L7.2126743,8.62318539 L6.77885285,8.62655917 C6.72266198,8.62698576 6.69939453,8.69864948 6.74457214,8.73203826 L7.09358376,8.98976394 L6.96274321,9.40338153 C6.94579674,9.45689664 7.00675744,9.50125988 7.05247797,9.46856913 L7.40540629,9.21627248 L7.75833458,9.46856913 C7.80401634,9.50122112 7.8650158,9.45693541 7.84806938,9.40338153 L7.71722878,8.98976394 L8.06624041,8.73203826 C8.11141801,8.69864948 8.08815057,8.62698576 8.03195969,8.62655917 L7.59813824,8.62318539 L7.46086033,8.21162316 C7.44306074,8.15834071 7.36771304,8.15834071 7.34995221,8.21162316 Z"></path>
            </g>
        </g>
    </g>
</svg>