<?xml version="1.0" encoding="UTF-8"?>
<svg width="24px" height="24px" viewBox="0 0 24 24" version="1.1" xmlns="http://www.w3.org/2000/svg" xmlns:xlink="http://www.w3.org/1999/xlink">
    <!-- Generator: Sketch 57.1 (83088) - https://sketch.com -->
    <title>icons/facebook</title>
    <desc>Created with Sketch.</desc>
    <defs>
        <path d="M8.93661951,10.012986 L6.1318168,10.012986 L6.1318168,20.01 L1.97565333,20.01 L1.97565333,10.012986 L0,10.012986 L0,6.47972619 L1.97565333,6.47972619 L1.97565333,4.1943571 C1.97565333,2.55758564 2.75341488,0 6.17001046,0 L9.24980745,0.011805314 L9.24980745,3.44159501 L7.01443732,3.44159501 C6.6505559,3.44159501 6.13320564,3.62353566 6.13320564,4.40407497 L6.13320564,6.48042062 L9.29980629,6.48042062 L8.93661951,10.012986 Z" id="path-1"></path>
    </defs>
    <g id="icons/facebook" stroke="none" stroke-width="1" fill="none" fill-rule="evenodd">
        <g id="Group" transform="translate(6.997500, 1.995000)">
            <g id="Mask" fill="#3538D0" fill-rule="nonzero">
                <path d="M8.93661951,10.012986 L6.1318168,10.012986 L6.1318168,20.01 L1.97565333,20.01 L1.97565333,10.012986 L0,10.012986 L0,6.47972619 L1.97565333,6.47972619 L1.97565333,4.1943571 C1.97565333,2.55758564 2.75341488,0 6.17001046,0 L9.24980745,0.011805314 L9.24980745,3.44159501 L7.01443732,3.44159501 C6.6505559,3.44159501 6.13320564,3.62353566 6.13320564,4.40407497 L6.13320564,6.48042062 L9.29980629,6.48042062 L8.93661951,10.012986 Z" id="path-1"></path>
            </g>
            <g id="↪🎨-Clipped">
                <g>
                    <mask id="mask-2" fill="white">
                        <use xlink:href="#path-1"></use>
                    </mask>
                    <g id="path-1"></g>
                    <g id="↪🎨" mask="url(#mask-2)">
                        <g transform="translate(-12.863571, -7.146429)" id="Atoms-/-Colors-/-Black">
                            <g>
                                <rect id="Rectangle" fill="#3538D0" fill-rule="nonzero" x="0" y="0" width="34.3028571" height="34.3028571"></rect>
                            </g>
                        </g>
                    </g>
                </g>
            </g>
        </g>
    </g>
</svg>