<?xml version="1.0" encoding="UTF-8"?>
<svg width="24px" height="24px" viewBox="0 0 24 24" version="1.1" xmlns="http://www.w3.org/2000/svg" xmlns:xlink="http://www.w3.org/1999/xlink">
    <!-- Generator: Sketch 57.1 (83088) - https://sketch.com -->
    <title>icons/linkedin</title>
    <desc>Created with Sketch.</desc>
    <defs>
        <path d="M14.6457188,5.74892331 C17.388216,5.74892331 19.4443119,7.54077936 19.4443119,11.3909073 L19.4443119,18.5807143 L15.2758528,18.5807143 L15.2758528,11.8727563 C15.2758528,10.1884613 14.6740079,9.03824143 13.1647329,9.03824143 C12.0129588,9.03824143 11.3287333,9.81261914 11.0265674,10.5624382 C10.9168303,10.8304084 10.8885411,11.20252 10.8885411,11.5783621 L10.8885411,18.5804034 L6.71977112,18.5804034 L6.72046747,18.4353066 C6.72673462,17.1108617 6.77199732,7.14093811 6.71977112,6.04331743 L10.888852,6.04331743 L10.888852,7.81994087 C11.4428227,6.96753474 12.4307683,5.74892331 14.6457188,5.74892331 Z M4.41497916,6.04331743 L4.41497916,18.5807143 L0.247763577,18.5807143 L0.247763577,6.04331743 L4.41497916,6.04331743 Z M2.35888338,0 C3.78515605,0 4.66149926,0.936030296 4.68916671,2.16583296 C4.68916671,3.3026509 3.88281152,4.22484747 2.56838664,4.32380505 L2.33121594,4.33259855 L2.30417022,4.33259855 C0.905875883,4.33259855 0,3.36952253 0,2.16583296 C0,0.936030296 0.932921599,0 2.35888338,0 Z" id="path-1"></path>
    </defs>
    <g id="icons/linkedin" stroke="none" stroke-width="1" fill="none" fill-rule="evenodd">
        <g id="Group" transform="translate(1.995000, 2.709643)">
            <g id="Mask" fill="#3538D0" fill-rule="nonzero">
                <path d="M14.6457188,5.74892331 C17.388216,5.74892331 19.4443119,7.54077936 19.4443119,11.3909073 L19.4443119,18.5807143 L15.2758528,18.5807143 L15.2758528,11.8727563 C15.2758528,10.1884613 14.6740079,9.03824143 13.1647329,9.03824143 C12.0129588,9.03824143 11.3287333,9.81261914 11.0265674,10.5624382 C10.9168303,10.8304084 10.8885411,11.20252 10.8885411,11.5783621 L10.8885411,18.5804034 L6.71977112,18.5804034 L6.72046747,18.4353066 C6.72673462,17.1108617 6.77199732,7.14093811 6.71977112,6.04331743 L10.888852,6.04331743 L10.888852,7.81994087 C11.4428227,6.96753474 12.4307683,5.74892331 14.6457188,5.74892331 Z M4.41497916,6.04331743 L4.41497916,18.5807143 L0.247763577,18.5807143 L0.247763577,6.04331743 L4.41497916,6.04331743 Z M2.35888338,0 C3.78515605,0 4.66149926,0.936030296 4.68916671,2.16583296 C4.68916671,3.3026509 3.88281152,4.22484747 2.56838664,4.32380505 L2.33121594,4.33259855 L2.30417022,4.33259855 C0.905875883,4.33259855 0,3.36952253 0,2.16583296 C0,0.936030296 0.932921599,0 2.35888338,0 Z" id="path-1"></path>
            </g>
            <g id="↪🎨-Clipped">
                <g>
                    <mask id="mask-2" fill="white">
                        <use xlink:href="#path-1"></use>
                    </mask>
                    <g id="path-1"></g>
                    <g id="↪🎨" mask="url(#mask-2)">
                        <g transform="translate(-7.146429, -8.575714)" id="Atoms-/-Colors-/-Black">
                            <g>
                                <rect id="Rectangle" fill="#3538D0" fill-rule="nonzero" x="0" y="0" width="34.3028571" height="34.3028571"></rect>
                            </g>
                        </g>
                    </g>
                </g>
            </g>
        </g>
    </g>
</svg>