<?xml version="1.0" encoding="UTF-8"?>
<svg width="24px" height="24px" viewBox="0 0 24 24" version="1.1" xmlns="http://www.w3.org/2000/svg" xmlns:xlink="http://www.w3.org/1999/xlink">
    <!-- Generator: Sketch 57.1 (83088) - https://sketch.com -->
    <title>icons/master_card</title>
    <desc>Created with Sketch.</desc>
    <g id="icons/master_card" stroke="none" stroke-width="1" fill="none" fill-rule="evenodd">
        <g id="Group" transform="translate(1.995000, 5.330000)" fill-rule="nonzero">
            <path d="M12.4924075,6.29732517 C12.4924075,9.74877604 9.69642112,12.5453791 6.24620373,12.5453791 C2.79598634,12.5453791 0,9.74815931 0,6.29732517 C0,2.84649103 2.79667161,0.0492711986 6.24620373,0.0492711986 C9.69573586,0.0492711986 12.4924075,2.84649103 12.4924075,6.29732517 Z" id="Path" fill="#E2574C"></path>
            <path d="M13.7476923,0.0492711986 C12.3468553,0.0492711986 11.0572382,0.516011302 10.0150735,1.29516781 L10.020076,1.29578455 C10.2250415,1.49382873 10.4511819,1.63321346 10.6255156,1.86120411 L9.32589353,1.88183085 C9.12223009,2.08741305 8.93665785,2.31108647 8.76170741,2.54353141 L11.0534691,2.54353141 C11.2278028,2.75281408 11.3889793,2.93468578 11.5352168,3.1658287 L8.34622586,3.1658287 C8.22938661,3.36702514 8.12131891,3.57384082 8.02695668,3.78874274 L11.8982749,3.78874274 C11.9994899,4.00302791 12.0900831,4.16488962 12.1669709,4.39171531 L7.79766401,4.39171531 C7.72831428,4.6073025 7.66896955,4.82782366 7.62394705,5.05273059 L12.3500075,5.05273059 C12.3962635,5.26893452 12.4318292,5.46882894 12.456225,5.67256089 L7.53020158,5.67256089 C7.50957483,5.87814309 7.49895309,6.08680901 7.49895309,6.2973937 L12.4917907,6.2973937 C12.4917907,6.51860014 12.4761665,6.72349705 12.4536895,6.92222651 L7.53020158,6.92222651 C7.55144507,7.13404469 7.58269356,7.34209387 7.62394705,7.54705932 L12.3424695,7.54705932 C12.2937466,7.74948925 12.2374855,7.95315267 12.1669023,8.16435411 L7.78327325,8.16435411 C7.84947072,8.3780225 7.93012747,8.585455 8.01818517,8.78788491 L11.8982749,8.78788491 C11.790824,9.01532733 11.6689822,9.19713052 11.5346685,9.41018216 L8.33505585,9.41018216 C8.46128336,9.6288531 8.60059948,9.83751905 8.75177095,10.037482 L11.0535377,10.0718142 C10.8573438,10.3073428 10.6055741,10.4491946 10.3762129,10.6553935 C10.3886849,10.6653985 10.0094543,10.65416 9.26277974,10.6423048 C10.3986899,11.8144659 11.9863327,12.5454477 13.7476238,12.5454477 C17.1984579,12.5454477 19.9956778,9.74815931 19.9956778,6.2973937 C19.9956778,2.84662809 17.1990747,0.0492711986 13.7476923,0.0492711986 Z" id="Path" fill="#F4B459"></path>
        </g>
    </g>
</svg>