<?xml version="1.0" encoding="UTF-8"?>
<svg width="24px" height="24px" viewBox="0 0 24 24" version="1.1" xmlns="http://www.w3.org/2000/svg" xmlns:xlink="http://www.w3.org/1999/xlink">
    <!-- Generator: Sketch 57.1 (83088) - https://sketch.com -->
    <title>icons/passport</title>
    <desc>Created with Sketch.</desc>
    <g id="icons/passport" stroke="none" stroke-width="1" fill="none" fill-rule="evenodd">
        <g id="Group" transform="translate(1.995000, 1.995000)" fill="#9C9FAB" fill-rule="nonzero">
            <path d="M1.0005,20.01 L18.676,20.01 C19.4127478,20.01 20.01,19.4127478 20.01,18.676 L20.01,13.34 C20.01,12.6032522 19.4127478,12.006 18.676,12.006 L14.674,12.006 L14.674,2.3345 C14.6725297,1.04580075 13.6281993,0.00147028144 12.3395,0 L1.0005,0 C0.447939108,0 0,0.447939108 0,1.0005 L0,19.0095 C0,19.5620609 0.447939108,20.01 1.0005,20.01 Z M8.67100001,16.008 L3.33499999,16.008 C3.15081304,16.008 3.0015,15.858687 3.0015,15.6745 L3.0015,15.0075 C3.0015,14.8233131 3.15081304,14.674 3.33499999,14.674 L8.67100001,14.674 L8.67100001,16.008 Z M19.343,13.34 L19.343,18.676 C19.343,19.0443739 19.0443739,19.343 18.676,19.343 L10.005,19.343 C9.63662608,19.343 9.33799999,19.0443739 9.33799999,18.676 L9.33799999,13.34 C9.33799999,12.9716261 9.63662608,12.673 10.005,12.673 L18.676,12.673 C19.0443739,12.673 19.343,12.9716261 19.343,13.34 Z M0.667000001,1.0005 C0.667000001,0.816313035 0.816313035,0.667000001 1.0005,0.667000001 L12.3395,0.667000001 C13.2599778,0.668102592 14.0058974,1.41402228 14.007,2.3345 L14.007,12.006 L10.005,12.006 C9.26825214,12.006 8.67100001,12.6032522 8.67100001,13.34 L8.67100001,14.007 L3.33499999,14.007 C2.7824391,14.007 2.3345,14.4549391 2.3345,15.0075 L2.3345,15.6745 C2.3345,16.2270609 2.7824391,16.675 3.33499999,16.675 L8.67100001,16.675 L8.67100001,18.676 C8.67238222,18.9108684 8.73639131,19.141117 8.856426,19.343 L1.0005,19.343 C0.816313035,19.343 0.667000001,19.1936869 0.667000001,19.0095 L0.667000001,1.0005 Z" id="Shape"></path>
            <path d="M2.80606901,9.11021951 C2.81348609,9.13150294 2.82309819,9.15195662 2.83474999,9.17125001 C3.66594055,10.9026862 5.41638834,12.0040694 7.33699999,12.0040694 C9.25761167,12.0040694 11.0080595,10.9026862 11.83925,9.17125001 C11.8507989,9.15248626 11.8604087,9.13259619 11.867931,9.11188699 C12.49676,7.77779388 12.49676,6.23254111 11.867931,4.898448 C11.8604087,4.87773883 11.8507989,4.85784874 11.83925,4.83908501 C11.0080595,3.10764877 9.25761167,2.0062656 7.33699999,2.0062656 C5.41638834,2.0062656 3.66594055,3.10764877 2.83474999,4.83908501 C2.82320112,4.85784874 2.81359132,4.87773883 2.80606901,4.898448 C2.17776391,6.23207471 2.17776391,7.77659278 2.80606901,9.11021951 Z M11.339,8.67100001 L9.85559201,8.67100001 C9.9352194,8.23039557 9.98225921,7.78452074 9.99632899,7.33699999 L11.6554915,7.33699999 C11.6219824,7.79572599 11.5151287,8.24611052 11.339,8.67100001 Z M3.0185085,7.33699999 L4.67767099,7.33699999 C4.6917408,7.78452074 4.73878061,8.23039557 4.818408,8.67100001 L3.33499999,8.67100001 C3.15887132,8.24611052 3.05201757,7.79572599 3.0185085,7.33699999 Z M5.34433751,7.33699999 L7.0035,7.33699999 L7.0035,8.67100001 L5.4937455,8.67100001 C5.40846811,8.23102613 5.35850624,7.78493805 5.34433751,7.33699999 Z M7.0035,9.33799999 L7.0035,11.268965 C6.47990501,11.05886 5.974986,10.368515 5.66049551,9.33799999 L7.0035,9.33799999 Z M7.67050001,11.268965 L7.67050001,9.33799999 L9.0135045,9.33799999 C8.69901401,10.367848 8.194095,11.05886 7.67050001,11.268965 Z M7.67050001,8.67100001 L7.67050001,7.33699999 L9.3296625,7.33699999 C9.31549374,7.78493805 9.26553188,8.23102613 9.18025451,8.67100001 L7.67050001,8.67100001 Z M11.6554915,6.67000001 L9.99632899,6.67000001 C9.98225921,6.22247926 9.9352194,5.77660443 9.85559201,5.33599999 L11.339,5.33599999 C11.5151287,5.76088948 11.6219824,6.21127401 11.6554915,6.67000001 Z M9.3296625,6.67000001 L7.67050001,6.67000001 L7.67050001,5.33599999 L9.18025451,5.33599999 C9.26553188,5.77597387 9.31549374,6.22206195 9.3296625,6.67000001 L9.3296625,6.67000001 Z M7.67050001,4.66900001 L7.67050001,2.73803501 C8.194095,2.94814001 8.69901401,3.63848501 9.0135045,4.66900001 L7.67050001,4.66900001 Z M7.0035,2.73803501 L7.0035,4.66900001 L5.66049551,4.66900001 C5.974986,3.63915199 6.47990501,2.94814001 7.0035,2.73803501 Z M7.0035,5.33599999 L7.0035,6.67000001 L5.34433751,6.67000001 C5.35850624,6.22206195 5.40846811,5.77597387 5.4937455,5.33599999 L7.0035,5.33599999 Z M4.67767099,6.67000001 L3.0185085,6.67000001 C3.05201757,6.21127401 3.15887132,5.76088948 3.33499999,5.33599999 L4.8174075,5.33599999 C4.7381157,5.77662937 4.69141033,6.222504 4.67767099,6.67000001 Z M3.68951051,9.33799999 L4.96915001,9.33799999 C5.12459669,9.94319664 5.38573822,10.5161726 5.74053551,11.0305125 C4.89710806,10.6940007 4.17998487,10.1022283 3.68951051,9.33799999 L3.68951051,9.33799999 Z M8.9334645,11.0305125 C9.28826178,10.5161726 9.54940332,9.94319664 9.70485,9.33799999 L10.9844895,9.33799999 C10.4940151,10.1022283 9.77689193,10.6940007 8.9334645,11.0305125 Z M10.9844895,4.66900001 L9.70485,4.66900001 C9.54940332,4.06380336 9.28826178,3.49082742 8.9334645,2.9764875 C9.77689193,3.3129993 10.4940151,3.90477169 10.9844895,4.66900001 Z M5.74053551,2.9764875 C5.38573822,3.49082742 5.12459669,4.06380336 4.96915001,4.66900001 L3.68951051,4.66900001 C4.17998487,3.90477169 4.89710806,3.3129993 5.74053551,2.9764875 Z" id="Shape"></path>
            <path d="M12.6039655,15.6261425 C12.992371,15.2472885 13.1126198,14.6709322 12.9081088,14.1683743 C12.7035978,13.6658165 12.2150764,13.3371933 11.6725,13.3371933 C11.1299236,13.3371933 10.6414022,13.6658165 10.4368912,14.1683743 C10.2323802,14.6709322 10.352629,15.2472885 10.7410345,15.6261425 C10.2811088,15.935888 10.0052424,16.4539968 10.005,17.0085 L10.005,18.009 C10.005,18.3773739 10.3036261,18.676 10.672,18.676 L12.673,18.676 C13.0413739,18.676 13.34,18.3773739 13.34,18.009 L13.34,17.0085 C13.3397575,16.4539968 13.0638912,15.935888 12.6039655,15.6261425 L12.6039655,15.6261425 Z M11.0055,14.674 C11.0055,14.3056261 11.3041261,14.007 11.6725,14.007 C12.0408739,14.007 12.3395,14.3056261 12.3395,14.674 C12.3395,15.0423739 12.0408739,15.341 11.6725,15.341 C11.3041261,15.341 11.0055,15.0423739 11.0055,14.674 Z M10.672,18.009 L10.672,17.0085 C10.672,16.4559391 11.1199391,16.008 11.6725,16.008 C12.2250609,16.008 12.673,16.4559391 12.673,17.0085 L12.673,18.009 L10.672,18.009 Z" id="Shape"></path>
            <path d="M14.007,14.007 C14.007,14.1911869 14.156313,14.3405 14.3405,14.3405 L18.009,14.3405 C18.1931869,14.3405 18.3425,14.1911869 18.3425,14.007 C18.3425,13.8228131 18.1931869,13.6735 18.009,13.6735 L14.3405,13.6735 C14.156313,13.6735 14.007,13.8228131 14.007,14.007 Z" id="Shape"></path>
            <path d="M18.009,15.0075 L14.3405,15.0075 C14.156313,15.0075 14.007,15.156813 14.007,15.341 C14.007,15.5251869 14.156313,15.6745 14.3405,15.6745 L18.009,15.6745 C18.1931869,15.6745 18.3425,15.5251869 18.3425,15.341 C18.3425,15.156813 18.1931869,15.0075 18.009,15.0075 Z" id="Shape"></path>
            <path d="M18.009,16.3415 L14.3405,16.3415 C14.156313,16.3415 14.007,16.4908131 14.007,16.675 C14.007,16.859187 14.156313,17.0085 14.3405,17.0085 L18.009,17.0085 C18.1931869,17.0085 18.3425,16.859187 18.3425,16.675 C18.3425,16.4908131 18.1931869,16.3415 18.009,16.3415 Z" id="Shape"></path>
            <path d="M16.008,17.6755 L14.3405,17.6755 C14.156313,17.6755 14.007,17.8248131 14.007,18.009 C14.007,18.1931869 14.156313,18.3425 14.3405,18.3425 L16.008,18.3425 C16.1921869,18.3425 16.3415,18.1931869 16.3415,18.009 C16.3415,17.8248131 16.1921869,17.6755 16.008,17.6755 Z" id="Shape"></path>
        </g>
    </g>
</svg>