<?xml version="1.0" encoding="UTF-8"?>
<svg width="24px" height="24px" viewBox="0 0 24 24" version="1.1" xmlns="http://www.w3.org/2000/svg" xmlns:xlink="http://www.w3.org/1999/xlink">
    <!-- Generator: Sketch 57.1 (83088) - https://sketch.com -->
    <title>icons/success</title>
    <desc>Created with Sketch.</desc>
    <g id="icons/success" stroke="none" stroke-width="1" fill="none" fill-rule="evenodd">
        <g id="Group" transform="translate(1.995000, 1.995000)">
            <path d="M10.005,0 C4.48837683,0 0,4.48837683 0,10.005 C0,15.5216232 4.48837683,20.01 10.005,20.01 C15.5216232,20.01 20.01,15.5216232 20.01,10.005 C20.01,4.48837683 15.5216232,0 10.005,0 Z" id="Shape" stroke="#34BFA3"></path>
            <path d="M13.8569381,7.20138072 L8.91379127,12.1182343 L7.11006852,10.3039942 C6.85765251,10.0515782 6.45273516,10.0515782 6.20031914,10.2987355 C5.94790313,10.5458929 5.94790313,10.9560689 6.19506048,11.2084849 L8.45102857,13.480229 C8.57723658,13.606437 8.74025524,13.669541 8.90853261,13.669541 C9.07155128,13.669541 9.23456994,13.606437 9.36077795,13.480229 L14.7614289,8.1111301 C15.0138449,7.85871409 15.0138449,7.45379674 14.7666875,7.20138072 C14.5142715,6.94896471 14.1093542,6.94896471 13.8569381,7.20138072 Z" id="Path" fill="#34BFA3" fill-rule="nonzero"></path>
        </g>
    </g>
</svg>