<?xml version="1.0" encoding="UTF-8"?>
<svg width="24px" height="24px" viewBox="0 0 24 24" version="1.1" xmlns="http://www.w3.org/2000/svg" xmlns:xlink="http://www.w3.org/1999/xlink">
    <!-- Generator: Sketch 57.1 (83088) - https://sketch.com -->
    <title>icons/twitter</title>
    <desc>Created with Sketch.</desc>
    <defs>
        <path d="M15.6666529,2.36588824 L15.6313412,2.34234706 C14.9015647,1.64788235 14.0423118,1.31830588 13.0535824,1.36538824 L13.0182706,1.29476471 L13.0418118,1.28299412 C13.9363765,1.08289412 14.4660529,0.871023529 14.6308412,0.635611765 C14.6779235,0.447282353 14.6190706,0.341347059 14.4189706,0.317805882 C13.9716882,0.376658824 13.5479471,0.470823529 13.1830588,0.623841176 C13.6538824,0.317805882 13.8304412,0.105935294 13.7245059,0 C13.2654529,0.0117705882 12.7593176,0.247182353 12.2414118,0.718005882 C12.4297412,0.388429412 12.5121353,0.2001 12.4650529,0.176558824 C12.2061,0.341347059 11.9942294,0.529676471 11.8059,0.729776471 C11.4057,1.17705882 11.0878941,1.58902941 10.8407118,1.96568824 L10.8289412,1.98922941 C10.2051,3.01327059 9.75781765,4.03731176 9.49886471,5.08489412 L9.4047,5.16728824 L9.38115882,5.17905882 C9.0045,4.70823529 8.54544706,4.30803529 8.004,3.99022941 C7.36838824,3.56648824 6.61507059,3.17805882 5.74404706,2.78962941 C4.8024,2.29526471 3.83721176,1.89506471 2.87202353,1.57725882 C2.86025294,2.67192353 3.4017,3.53117647 4.44928235,4.16678824 L4.44928235,4.17855882 C4.08439412,4.17855882 3.71950588,4.23741176 3.36638824,4.34334706 C3.43701176,5.35561765 4.15501765,6.05008235 5.50863529,6.42674118 L5.49686471,6.45028235 C4.96718824,6.41497059 4.53167647,6.6033 4.19032941,6.99172941 C4.63761176,7.86275294 5.42624118,8.27472353 6.56798824,8.25118235 C6.34434706,8.36888824 6.16778824,8.48659412 6.05008235,8.62784118 C5.83821176,8.85148235 5.76758824,9.11043529 5.83821176,9.4047 C6.08539412,9.85198235 6.52090588,10.0520824 7.16828824,10.0167706 L7.2036,10.0638529 L7.19182941,10.0873941 C6.07362353,11.2409118 4.72000588,11.7588176 3.14274706,11.6528824 L3.11920588,11.6646529 C2.15401765,11.6528824 1.11820588,11.1938294 0,10.2757235 C1.11820588,11.8882941 2.61307059,13.0535824 4.46105294,13.7951294 C6.56798824,14.4895941 8.68669412,14.5484471 10.7936294,13.9481471 L10.8289412,13.9481471 C12.8770235,13.3596176 14.6073,12.1354765 16.0433118,10.2992647 C16.7024647,9.34584706 17.1144353,8.42774118 17.2792235,7.54494706 C18.3503471,7.58025882 19.1154353,7.27422353 19.5980294,6.61507059 L19.5862588,6.59152941 C19.2213706,6.72100588 18.5269059,6.68569412 17.5028647,6.47382353 L17.5028647,6.35611765 C18.6328412,6.22664118 19.3037647,5.86175294 19.5156353,5.26145294 C18.7270059,5.56748824 17.9501471,5.57925882 17.1850588,5.28499412 C17.0438118,4.22564118 16.5376765,3.24868235 15.6666529,2.36588824" id="path-1"></path>
    </defs>
    <g id="icons/twitter" stroke="none" stroke-width="1" fill="none" fill-rule="evenodd">
        <g id="Group" transform="translate(1.995000, 4.349118)">
            <g id="Mask" fill="#3538D0" fill-rule="nonzero">
                <path d="M15.6666529,2.36588824 L15.6313412,2.34234706 C14.9015647,1.64788235 14.0423118,1.31830588 13.0535824,1.36538824 L13.0182706,1.29476471 L13.0418118,1.28299412 C13.9363765,1.08289412 14.4660529,0.871023529 14.6308412,0.635611765 C14.6779235,0.447282353 14.6190706,0.341347059 14.4189706,0.317805882 C13.9716882,0.376658824 13.5479471,0.470823529 13.1830588,0.623841176 C13.6538824,0.317805882 13.8304412,0.105935294 13.7245059,0 C13.2654529,0.0117705882 12.7593176,0.247182353 12.2414118,0.718005882 C12.4297412,0.388429412 12.5121353,0.2001 12.4650529,0.176558824 C12.2061,0.341347059 11.9942294,0.529676471 11.8059,0.729776471 C11.4057,1.17705882 11.0878941,1.58902941 10.8407118,1.96568824 L10.8289412,1.98922941 C10.2051,3.01327059 9.75781765,4.03731176 9.49886471,5.08489412 L9.4047,5.16728824 L9.38115882,5.17905882 C9.0045,4.70823529 8.54544706,4.30803529 8.004,3.99022941 C7.36838824,3.56648824 6.61507059,3.17805882 5.74404706,2.78962941 C4.8024,2.29526471 3.83721176,1.89506471 2.87202353,1.57725882 C2.86025294,2.67192353 3.4017,3.53117647 4.44928235,4.16678824 L4.44928235,4.17855882 C4.08439412,4.17855882 3.71950588,4.23741176 3.36638824,4.34334706 C3.43701176,5.35561765 4.15501765,6.05008235 5.50863529,6.42674118 L5.49686471,6.45028235 C4.96718824,6.41497059 4.53167647,6.6033 4.19032941,6.99172941 C4.63761176,7.86275294 5.42624118,8.27472353 6.56798824,8.25118235 C6.34434706,8.36888824 6.16778824,8.48659412 6.05008235,8.62784118 C5.83821176,8.85148235 5.76758824,9.11043529 5.83821176,9.4047 C6.08539412,9.85198235 6.52090588,10.0520824 7.16828824,10.0167706 L7.2036,10.0638529 L7.19182941,10.0873941 C6.07362353,11.2409118 4.72000588,11.7588176 3.14274706,11.6528824 L3.11920588,11.6646529 C2.15401765,11.6528824 1.11820588,11.1938294 0,10.2757235 C1.11820588,11.8882941 2.61307059,13.0535824 4.46105294,13.7951294 C6.56798824,14.4895941 8.68669412,14.5484471 10.7936294,13.9481471 L10.8289412,13.9481471 C12.8770235,13.3596176 14.6073,12.1354765 16.0433118,10.2992647 C16.7024647,9.34584706 17.1144353,8.42774118 17.2792235,7.54494706 C18.3503471,7.58025882 19.1154353,7.27422353 19.5980294,6.61507059 L19.5862588,6.59152941 C19.2213706,6.72100588 18.5269059,6.68569412 17.5028647,6.47382353 L17.5028647,6.35611765 C18.6328412,6.22664118 19.3037647,5.86175294 19.5156353,5.26145294 C18.7270059,5.56748824 17.9501471,5.57925882 17.1850588,5.28499412 C17.0438118,4.22564118 16.5376765,3.24868235 15.6666529,2.36588824" id="path-1"></path>
            </g>
            <g id="↪🎨-Clipped">
                <g>
                    <mask id="mask-2" fill="white">
                        <use xlink:href="#path-1"></use>
                    </mask>
                    <g id="path-1"></g>
                    <g id="↪🎨" mask="url(#mask-2)">
                        <g transform="translate(-4.708235, -7.062353)" id="Atoms-/-Colors-/-Black">
                            <g>
                                <rect id="Rectangle" fill="#3538D0" fill-rule="nonzero" x="0" y="0" width="28.2494118" height="28.2494118"></rect>
                            </g>
                        </g>
                    </g>
                </g>
            </g>
        </g>
    </g>
</svg>