<?xml version="1.0" encoding="UTF-8"?>
<svg width="24px" height="24px" viewBox="0 0 24 24" version="1.1" xmlns="http://www.w3.org/2000/svg" xmlns:xlink="http://www.w3.org/1999/xlink">
    <!-- Generator: Sketch 57.1 (83088) - https://sketch.com -->
    <title>icons/upload-cloud</title>
    <desc>Created with Sketch.</desc>
    <g id="icons/upload-cloud" stroke="none" stroke-width="1" fill="none" fill-rule="evenodd" opacity="0.699999988">
        <g id="Group" transform="translate(1.995000, 1.995000)" fill="#9C9FAB" fill-rule="nonzero">
            <g id="Page-1">
                <g id="upload-cloud">
                    <g id="Page-1">
                        <g id="03.-Enter-payment-info---Bank">
                            <g id="purchase-form">
                                <g id="card">
                                    <g id="Card-number-Copy">
                                        <g id="select-amount-input">
                                            <g id="icons/upload-cloud">
                                                <path d="M13.2182725,10.7170225 C13.3808538,10.5544413 13.3808538,10.2901425 13.2182725,10.1275613 L9.88577375,6.7950625 C9.87743625,6.78589125 9.868265,6.77755375 9.85909375,6.77005 L9.85909375,6.77005 C9.79406125,6.7150225 9.71735625,6.68334 9.63731625,6.673335 L9.6364825,6.673335 L9.6364825,6.673335 C9.6198075,6.67083375 9.60396625,6.67 9.588125,6.67 C9.58062125,6.67 9.57228375,6.67 9.56478,6.67083375 C9.56478,6.67083375 9.56478,6.67083375 9.56478,6.67083375 C9.46556375,6.67667 9.3696825,6.71752375 9.29381125,6.79256125 L5.95881125,10.1275613 C5.87710375,10.208435 5.83625,10.315155 5.83625,10.421875 C5.83625,10.528595 5.87710375,10.635315 5.9579775,10.7170225 C6.12055875,10.8796038 6.3848575,10.8796038 6.54743875,10.7170225 L9.17125,8.09321125 L9.17125,19.593125 C9.17125,19.82324 9.35801,20.01 9.588125,20.01 C9.81824,20.01 10.005,19.82324 10.005,19.593125 L10.005,8.09321125 L12.6279775,10.7161888 C12.7913925,10.8796038 13.0548575,10.8796038 13.2182725,10.7170225 Z" id="Path"></path>
                                                <path d="M15.7128525,5.02167625 C15.1333963,2.13523375 12.55961,0 9.588125,0 C6.139735,0 3.335,2.804735 3.335,6.253125 C3.335,6.39402875 3.34083625,6.5382675 3.3533425,6.69084375 C1.47156875,6.89094375 0,8.487575 0,10.421875 C0,12.4904088 1.68334125,14.17375 3.751875,14.17375 L8.3375,14.17375 L8.3375,10.1058838 L7.13773375,11.30565 C6.64999,11.7942275 5.85709375,11.7942275 5.36935,11.30565 C5.132565,11.0696988 5.0025,10.755375 5.0025,10.421875 C5.0025,10.088375 5.132565,9.77405125 5.36851625,9.53726625 L8.70351625,6.20226625 C8.9227925,5.9846575 9.2096025,5.85542625 9.51558875,5.8379175 L9.5831225,5.8345825 L9.72235875,5.84292 C9.98248875,5.8746025 10.2126038,5.97548625 10.4001975,6.13556625 L10.488575,6.21894125 L13.8077338,9.53726625 C14.2954775,10.02501 14.2954775,10.8179063 13.8077338,11.30565 C13.3358313,11.7775525 12.5112525,11.7775525 12.03935,11.30565 L10.83875,10.1058838 L10.83875,14.17375 L15.424375,14.17375 C17.952305,14.17375 20.01,12.116055 20.01,9.588125 C20.01,7.17775375 18.1407325,5.19593 15.7128525,5.02167625 Z" id="Path"></path>
                                            </g>
                                        </g>
                                    </g>
                                </g>
                            </g>
                        </g>
                    </g>
                </g>
            </g>
        </g>
    </g>
</svg>